<svg width="113" height="111" viewBox="0 0 113 111" fill="none" xmlns="http://www.w3.org/2000/svg">
<path fill-rule="evenodd" clip-rule="evenodd" d="M53.0264 0.151219C52.5551 0.252948 51.6557 0.587273 51.0278 0.894298C49.8012 1.4939 49.0523 2.1541 47.0381 4.4126C46.4976 5.01845 45.7167 5.7308 45.2647 6.03023C44.7185 6.3921 42.8329 7.22332 39.438 8.59893C36.6774 9.71747 34.1158 10.7944 33.7455 10.992C31.6934 12.087 30.1594 14.0536 29.575 16.3388C29.2305 17.6858 29.261 19.1259 29.6698 20.814C30.3785 23.74 30.0217 26.3788 28.5862 28.8271C28.2964 29.3212 26.495 31.2216 22.4683 35.2811C19.3294 38.4456 16.5148 41.3735 16.2135 41.7875C13.2292 45.8883 13.1199 51.6346 15.9432 55.9933C16.2265 56.4306 18.8334 59.1429 22.7154 63.0394L29.027 69.3746H25.5342H22.0415L21.4028 69.6929C20.6661 70.0599 20.1079 70.7754 19.919 71.5946C19.8513 71.8886 19.7945 73.5341 19.7928 75.2514L19.7898 78.3738L19.0859 78.4062C13.0225 78.6856 7.47662 82.6381 5.21188 88.294C4.29558 90.5823 3.88842 93.2955 4.11575 95.5971C4.83055 102.834 9.88778 108.415 17.0354 109.856C18.0801 110.067 19.5564 110.079 45.5589 110.079C76.212 110.079 73.7225 110.147 77.5713 109.205C84.5356 107.502 90.8424 103.341 95.2869 97.5181L96.0908 96.4649L98.1291 93.0913C98.1291 93.0913 100.168 88.5495 100.775 86.1895C101.487 83.4183 101.725 81.4554 101.73 78.3111C101.734 75.3547 101.575 73.8185 101.005 71.2721C98.9308 62.0154 92.7165 54.0487 84.2298 49.7665L82.7225 49.0059L71.2293 37.4916L59.7359 25.9773L59.1668 24.8574C58.3652 23.2798 58.0635 21.9374 58.1392 20.2849C58.2451 17.9718 58.8686 16.5908 60.8074 14.374C62.8277 12.0642 63.5855 9.57461 63.0757 6.92144C62.4783 3.81153 60.3561 1.4005 57.3279 0.391281C56.098 -0.0185758 54.2831 -0.119816 53.0264 0.151219Z" fill="#FF019A"/>
<circle cx="70.0844" cy="78.1878" r="31.89" fill="#111111"/>
<rect x="14.5677" y="68.4561" width="55.5779" height="41.6222" rx="5" fill="#FF5A00"/>
<circle cx="15.8531" cy="93.9801" r="15.8532" fill="#FFD400"/>
<path d="M9.246 93.7819C9.246 93.7819 11.8877 91.0106 16.7309 91.58C22.7684 92.2899 24.3365 98.4064 30.3798 99.0649C37.9665 99.8917 40.8002 91.6445 48.4316 91.58C56.222 91.5142 58.1179 99.298 66.9237 99.0649C75.7294 98.8319 78.1072 91.8903 85.4157 91.58C93.3409 91.2436 94.7422 98.3454 101.706 99.0649C108.671 99.7845 110.952 95.9832 110.952 95.9832" stroke="#005AFF" stroke-width="3"/>
<rect x="23" y="47" width="3" height="6" rx="1.5" fill="black"/>
<rect x="23" y="47" width="3" height="6" rx="1.5" fill="black"/>
<rect x="23" y="47" width="3" height="6" rx="1.5" fill="black"/>
<rect x="30" y="47" width="3" height="6" rx="1.5" fill="black"/>
<rect x="30" y="47" width="3" height="6" rx="1.5" fill="black"/>
<rect x="30" y="47" width="3" height="6" rx="1.5" fill="black"/>
</svg>
