<svg width="426" height="156" viewBox="0 0 426 156" fill="none" xmlns="http://www.w3.org/2000/svg">
<path fill-rule="evenodd" clip-rule="evenodd" d="M95.5722 0.538949C91.8434 1.72025 88.5708 4.53014 86.8855 7.9978C84.8043 12.2803 84.8169 16.703 86.9227 20.9875C88.7048 24.6132 91.9901 27.3702 95.8931 28.5155C97.9391 29.1158 101.942 29.1082 103.994 28.5003C110.247 26.6478 114.509 20.9498 114.509 14.4445C114.509 8.25235 110.448 2.68018 104.426 0.611131C102.142 -0.173531 97.9295 -0.207974 95.5722 0.538949ZM94.2468 38.0105C93.0627 38.1169 91.1821 38.3892 90.0677 38.6156C88.1243 39.0102 83.3882 40.3997 82.5959 40.8072C82.387 40.9146 81.0002 41.5706 79.5145 42.2646C78.0285 42.9588 75.8916 44.1176 74.7655 44.84L72.7684 46.1294L70.7551 44.8959C68.7004 43.5799 65.3176 41.7988 64.8726 41.7988C64.6984 41.7988 64.613 46.4184 64.613 55.8346V69.8704L65.5628 70.6178C66.9498 71.7092 68.3 72.3282 70.4033 72.8368C72.021 73.2281 72.5385 73.0974 74.2177 72.8368C79.4566 72.0237 81.2029 68.106 84.6956 65.4866C88.1882 62.8671 89.9345 61.9939 94.3003 61.1208C96.7086 60.6391 100.823 60.7804 103.365 61.41C111.204 63.353 117.97 69.5695 120.633 77.276C121.414 79.5376 121.458 79.859 121.465 83.3368C121.473 87.4769 121.186 88.8479 119.576 92.3493C117.599 96.6484 116.798 97.5613 101.872 112.537C94.1258 120.308 87.1372 127.141 86.3414 127.721C84.6827 128.929 81.9787 130.41 80.3164 131.021C75.964 132.719 70.7251 132.719 65.4862 131.846L64.613 130.894V142.796V154.698H65.4995C67.3811 155.076 72.5108 155.403 74.8709 155.261C83.5918 154.734 91.6393 152.162 98.74 147.385C101.175 145.747 103.105 143.919 116.873 130.211C125.347 121.773 132.975 114.015 133.824 112.971C140.006 105.366 143.535 96.9509 144.573 87.3389C144.978 83.5931 144.978 83.143 144.569 79.5741C144.073 75.2503 143.678 73.4079 142.443 69.6713C136.757 52.4619 120.609 39.5824 102.732 37.9976C99.6169 37.7215 97.4252 37.7248 94.2468 38.0105Z" fill="#FFD600"/>
<path fill-rule="evenodd" clip-rule="evenodd" d="M40.3953 0.616164C37.9709 1.4492 36.064 2.68243 34.276 4.57392C26.8458 12.4347 30.3955 25.3799 40.8411 28.5152C42.861 29.1216 46.8664 29.1244 48.9278 28.5211C53.3407 27.2296 57.0505 23.7518 58.6697 19.3885C59.3506 17.554 59.6228 13.7267 59.2239 11.6035C58.2721 6.53887 53.9919 1.93753 48.8184 0.416832C46.6749 -0.213077 42.5231 -0.115056 40.3953 0.616164ZM41.456 38.0107C26.5518 39.4889 12.4494 49.2316 5.17008 63.0794C2.25432 68.6265 0.818217 73.6161 0.140439 80.5557C-0.575078 87.8801 1.48131 97.2066 5.44591 104.617C6.76018 107.074 9.25575 110.831 10.9978 112.976C11.8466 114.02 19.4743 121.775 27.9483 130.208C41.5994 143.792 43.6651 145.749 46.0708 147.377C53.7682 152.586 62.4585 155.303 71.5964 155.358C73.7556 155.371 76.6903 153.725 77.6304 153.615L78.7702 152.728L78.9415 143.222C78.9415 135.236 77.2211 134.909 77.0417 134.909C76.8966 134.909 73.5792 132.249 72.4827 132.249C71.3429 132.249 68.9496 132.241 66.1509 131.493C63.6865 130.835 60.5592 129.287 58.3916 127.653C57.5049 126.985 50.5009 120.133 42.8273 112.425C27.9894 97.5225 27.1422 96.5517 25.165 92.1859C23.7315 89.0206 23.3465 87.1752 23.3465 83.4685C23.3465 79.6414 23.7621 77.7324 25.2656 74.6563C27.9737 69.1146 33.2386 64.2493 38.67 62.2692C41.7382 61.1504 42.8359 60.9584 46.1417 60.962C48.7386 60.9645 49.8239 61.0787 51.2783 61.5017C53.4658 62.1382 56.1975 63.4299 58.2992 64.822C59.9797 65.9349 60.1986 66.3963 63.1113 69.5623C66.2172 72.9382 70.032 72.9447 71.4251 73.198C73.8312 72.6915 71.7754 71.2475 74.2111 70.032L72.103 58.0012L73.198 56.8614L72.103 50.9093L73.1159 46.7671L72.3561 45.8806C67.797 42.4613 60.1541 39.2584 54.5 38.5345C51.395 37.8377 45.5612 37.6035 41.456 38.0107Z" fill="#005AFF"/>
<path d="M83.6262 143.897C83.6262 150.332 78.4099 155.421 71.9753 155.421C65.5407 155.421 60.3244 150.332 60.3244 143.897C60.3244 137.462 65.5407 132.246 71.9753 132.246C78.4099 132.246 83.6262 137.462 83.6262 143.897Z" fill="#7784F7"/>
<path d="M83.3711 61.8336C83.3711 68.2682 78.1548 73.3579 71.7202 73.3579C65.2856 73.3579 60.0693 68.2682 60.0693 61.8336C60.0693 58.6837 61.2043 55.6823 63.2353 53.5852C63.6926 53.1132 65.5149 51.0692 67.4145 49.5495C69.3432 48.1345 72.3534 45.877 72.3534 45.877C72.3534 45.877 75.4381 48.3335 77.5457 50.436C77.5932 50.4834 80.1584 53.1739 80.2051 53.2221C82.2362 55.3191 83.3711 58.6837 83.3711 61.8336Z" fill="#7784F7"/>
<path d="M156.844 69.9277C154.019 64.1531 153.881 62.9934 153.881 45.1623V30.3334H163.196H172.511V42.6247C172.511 57.4787 172.794 59.4488 175.279 61.903C176.897 63.5007 180.31 64.1785 183.976 63.6298C188.653 62.9297 191.702 60.7227 192.782 57.2548C193.905 53.6502 194.033 52.0127 194.033 41.1973V30.3334H203.508H212.984V54.7236C212.984 75.4983 212.917 79.1393 212.528 79.2865C211.636 79.6246 195.328 79.5269 194.671 79.1796C194.121 78.8887 194.033 78.5125 194.033 76.4698C194.033 75.1651 194.173 73.8498 194.343 73.5468C194.515 73.2439 194.864 72.3538 195.12 71.5688C195.376 70.7837 196.031 68.9542 196.576 67.5031C197.12 66.0519 197.566 64.8028 197.566 64.7276C197.566 64.6521 196.649 64.5906 195.529 64.5906H193.492L192.891 66.573C191.306 71.8071 188.077 75.9328 183.819 78.1668C180.802 79.7499 178.414 80.2035 173.975 80.037C169.242 79.8594 168.019 79.5938 164.88 78.0621C161.47 76.3975 158.575 73.4682 156.844 69.9277Z" fill="#2C2C2E"/>
<path d="M277.127 39.5855C279.952 45.36 280.091 46.5197 280.091 64.3509V79.1797H270.775H261.46V66.8885C261.46 52.0345 261.177 50.0643 258.692 47.6102C257.074 46.0125 253.661 45.3346 249.996 45.8834C245.318 46.5834 242.27 48.7906 241.189 52.2585C240.066 55.8631 239.939 57.5004 239.939 68.3158V79.1797H230.463H220.987V54.7897C220.987 34.0149 221.055 30.3738 221.443 30.2266C222.335 29.8885 238.643 29.9861 239.3 30.3334C239.85 30.6243 239.939 31.0005 239.939 33.0433C239.939 34.3479 239.799 35.6633 239.628 35.9662C239.457 36.2692 239.107 37.1592 238.851 37.9443C238.595 38.7293 237.94 40.5589 237.395 42.0101C236.851 43.4612 236.405 44.7104 236.405 44.7855C236.405 44.861 237.322 44.9226 238.443 44.9226H240.479L241.08 42.9401C242.666 37.706 245.894 33.5803 250.152 31.3463C253.17 29.7632 255.557 29.3096 259.996 29.4761C264.729 29.6537 265.952 29.9192 269.091 31.4509C272.501 33.1156 275.396 36.0449 277.127 39.5855Z" fill="#2C2C2E"/>
<path d="M300.71 14.2843C301.636 12.5527 303.541 11.1929 305.794 10.6546C308.869 9.92 312.9 10.2179 315.136 11.3449C316.605 12.0855 318.276 13.7088 318.769 14.8742C319.034 15.501 319.236 16.9889 319.236 18.3208C319.236 22.6404 317.399 24.9115 313.131 25.87C310.433 26.4759 308.038 26.4981 305.905 25.937C301.569 24.7957 299.963 22.6864 299.963 18.1311C299.963 16.1797 300.115 15.3983 300.71 14.2843Z" fill="#2C2C2E"/>
<path d="M295.105 29.8143C297.335 29.7915 300.822 29.6681 302.854 29.54C309.305 29.1336 314.086 29.2967 315.457 29.9697C317.039 30.7462 318.398 32.1517 319.303 33.9477C320.027 35.3839 320.041 35.6247 320.199 49.0465L320.36 62.686L326.945 62.8446L333.53 63.0032V71.0918V79.1802H310.563H287.596L287.506 71.7262C287.456 67.6264 287.494 63.9539 287.59 63.5647C287.764 62.8649 287.837 62.8567 294.426 62.7716L301.087 62.686V54.439V46.1918L298.999 46.201C297.851 46.2057 295.177 46.2771 293.057 46.3596L289.202 46.509L289.116 38.3817L289.031 30.2549L290.04 30.0554C290.595 29.946 292.874 29.8375 295.105 29.8143Z" fill="#2C2C2E"/>
<path d="M365.37 78.9059C363.14 78.9287 359.653 79.0521 357.621 79.1802C351.17 79.5866 346.388 79.4235 345.018 78.7504C343.436 77.9739 342.077 76.5685 341.172 74.7725C340.448 73.3362 340.434 73.0955 340.275 59.6737L340.115 46.0341L333.53 45.8755L326.945 45.7169V37.6283V29.5398H340.868H358.73H372.879L372.969 36.9939C373.019 41.0937 372.981 44.7663 372.885 45.1555C372.711 45.8552 372.638 45.8635 366.048 45.9485L359.388 46.0341V54.2813V62.5284L361.476 62.5192C362.624 62.5145 365.298 62.4431 367.418 62.3606L371.273 62.2112L371.359 70.3384L371.444 78.4653L370.435 78.6648C369.88 78.7742 367.601 78.8827 365.37 78.9059Z" fill="#2C2C2E"/>
<path d="M393.18 14.3927C394.106 12.6611 396.011 11.3013 398.264 10.763C401.339 10.0284 405.37 10.3263 407.606 11.4533C409.075 12.1939 410.746 13.8173 411.239 14.9826C411.505 15.6094 411.706 17.0973 411.706 18.4292C411.706 22.7488 409.87 25.0199 405.601 25.9785C402.903 26.5843 400.508 26.6065 398.376 26.0454C394.039 24.9041 392.433 22.7948 392.433 18.2395C392.433 16.2882 392.585 15.5067 393.18 14.3927Z" fill="#2C2C2E"/>
<path d="M387.575 29.9228C389.805 29.8999 393.292 29.7765 395.324 29.6484C401.775 29.2421 406.556 29.4051 407.927 30.0782C409.509 30.8547 410.868 32.2601 411.773 34.0561C412.497 35.4924 412.512 35.7331 412.67 49.155L412.83 62.7945L419.415 62.953L426 63.1117V71.2002V79.2887H403.033H380.066L379.976 71.8346C379.926 67.7349 379.964 64.0623 380.06 63.6731C380.234 62.9734 380.307 62.9651 386.897 62.8801L393.557 62.7945V54.5474V46.3002L391.469 46.3094C390.321 46.3142 387.647 46.3855 385.527 46.468L381.672 46.6174L381.587 38.4902L381.501 30.3633L382.51 30.1638C383.065 30.0544 385.344 29.9459 387.575 29.9228Z" fill="#2C2C2E"/>
<path fill-rule="evenodd" clip-rule="evenodd" d="M253.537 80.1485C253.459 80.2302 250.513 80.3244 246.991 80.3577C243.47 80.3907 240.368 80.5327 240.1 80.6733C239.656 80.9058 239.613 81.5521 239.613 88.0022C239.613 93.9512 239.678 95.1015 240.021 95.2361C240.245 95.324 241.913 95.2666 243.726 95.1084C245.54 94.9501 247.769 94.8599 248.68 94.9077L250.336 94.9948L250.408 112.051C250.465 125.507 250.406 129.155 250.13 129.334C249.937 129.459 247.299 129.564 244.267 129.566L238.754 129.57L238.944 127.436L239.133 125.302H230.934H222.735L222.385 126.288C221.614 128.47 218.591 130.154 215.299 130.238C212.922 130.298 211.159 129.711 209.652 128.355C207.764 126.657 207.176 125.149 207.184 122.029C207.19 119.866 207.3 119.247 207.894 118.045C208.706 116.399 210.424 114.939 212.12 114.451C213.624 114.018 216.581 114.018 218.085 114.451C219.667 114.906 221.508 116.39 222.295 117.845L222.943 119.041H231.04H239.136L238.972 117.263C238.204 108.978 232.222 102.791 222.344 100.067C219.622 99.3163 210.219 99.3323 207.304 100.093C200.477 101.873 195.535 105.694 192.998 111.152C190.559 116.398 190.087 121.756 191.462 128.574C192.741 134.916 197.189 140.226 203.405 142.833C206.929 144.311 210.424 144.938 215.154 144.938C220.571 144.938 224.613 143.994 228.709 141.772C233.304 139.28 236.067 136.29 237.835 131.898L238.486 130.282L238.492 136.875C238.496 140.501 238.575 143.67 238.668 143.918C238.82 144.323 240.808 144.368 258.282 144.368C268.976 144.368 277.925 144.29 278.167 144.195C278.553 144.044 278.608 143.124 278.608 136.802V129.582L272.689 129.505L266.77 129.428L266.631 107.374C266.521 89.9869 266.414 85.1388 266.124 84.4666C265.499 83.0153 264.439 81.8082 263.07 80.9869C261.827 80.2413 261.54 80.1938 257.718 80.0996C255.497 80.0447 253.615 80.0666 253.537 80.1485ZM336.055 80.6639C335.511 81.2237 335.548 143.595 336.093 144.057C336.58 144.47 350.878 144.469 351.633 144.056C351.912 143.903 352.137 143.559 352.134 143.291C352.131 143.023 351.453 140.905 350.628 138.586C349.529 135.499 349.223 134.332 349.483 134.23C349.678 134.154 350.493 134.13 351.292 134.178L352.746 134.266L353.766 136.245C354.924 138.493 357.812 141.795 359.51 142.811C360.575 143.449 361.761 143.877 364.566 144.63C366.18 145.064 371.753 144.996 373.586 144.521C376.485 143.769 377.132 143.507 378.769 142.424C382.34 140.061 385.076 135.781 386.44 130.424C386.885 128.676 387.508 123.516 387.506 121.602C387.503 119.49 386.922 115.433 386.264 112.923C385.255 109.074 382.435 104.581 379.736 102.52C376.743 100.235 373.906 99.4156 368.991 99.4156C361.169 99.4156 356.746 102.007 353.56 108.456L352.688 110.219H350.852C349.214 110.219 349.038 110.166 349.214 109.721C349.323 109.448 349.512 108.903 349.635 108.512C349.758 108.121 350.34 106.52 350.929 104.955L352 102.109L352.077 91.5224C352.148 81.6265 352.12 80.9192 351.659 80.6824C351.387 80.5432 347.843 80.4015 343.784 80.3674C338.156 80.3204 336.32 80.391 336.055 80.6639ZM280.279 113.563C280.279 129.56 280.399 130.601 282.848 135.781C284.35 138.958 286.859 141.586 289.817 143.079C292.538 144.453 293.599 144.693 297.703 144.852C301.552 145.001 303.622 144.594 306.239 143.173C309.931 141.169 312.731 137.467 314.105 132.772L314.626 130.993H316.392C317.364 130.993 318.159 131.048 318.159 131.116C318.159 131.184 317.772 132.304 317.3 133.606C316.828 134.908 316.26 136.549 316.038 137.254C315.816 137.958 315.513 138.757 315.365 139.028C315.216 139.3 315.095 140.48 315.095 141.651C315.095 143.483 315.172 143.821 315.649 144.082C316.219 144.393 330.359 144.481 331.133 144.178C331.47 144.046 331.528 140.779 331.528 122.141V100.259H323.312H315.095V110.006C315.095 119.709 314.984 121.178 314.011 124.412C313.074 127.523 310.43 129.503 306.375 130.131C303.196 130.624 300.237 130.015 298.834 128.582C296.679 126.38 296.434 124.613 296.434 111.286V100.259H288.356H280.279V113.563ZM366.266 114.681C367.881 115.179 369.851 116.736 370.307 117.874C371.5 120.848 371.267 124.942 369.784 127.098C368.107 129.535 363.725 130.792 359.149 130.147C354.199 129.449 352.14 127.096 352.14 122.14C352.14 118.317 353.36 116.017 355.984 114.897C358.295 113.911 363.422 113.802 366.266 114.681Z" fill="#FF019A"/>
<path fill-rule="evenodd" clip-rule="evenodd" d="M253.537 80.1485C253.459 80.2302 250.513 80.3244 246.991 80.3577C243.47 80.3907 240.368 80.5327 240.1 80.6733C239.656 80.9058 239.613 81.5521 239.613 88.0022C239.613 93.9512 239.678 95.1015 240.021 95.2361C240.245 95.324 241.913 95.2666 243.726 95.1084C245.54 94.9501 247.769 94.8599 248.68 94.9077L250.336 94.9948L250.408 112.051C250.465 125.507 250.406 129.155 250.13 129.334C249.937 129.459 247.299 129.564 244.267 129.566L238.754 129.57L238.944 127.436L239.133 125.302H230.934H222.735L222.385 126.288C221.614 128.47 218.591 130.154 215.299 130.238C212.922 130.298 211.159 129.711 209.652 128.355C207.764 126.657 207.176 125.149 207.184 122.029C207.19 119.866 207.3 119.247 207.894 118.045C208.706 116.399 210.424 114.939 212.12 114.451C213.624 114.018 216.581 114.018 218.085 114.451C219.667 114.906 221.508 116.39 222.295 117.845L222.943 119.041H231.04H239.136L238.972 117.263C238.204 108.978 232.222 102.791 222.344 100.067C219.622 99.3163 210.219 99.3323 207.304 100.093C200.477 101.873 195.535 105.694 192.998 111.152C190.559 116.398 190.087 121.756 191.462 128.574C192.741 134.916 197.189 140.226 203.405 142.833C206.929 144.311 210.424 144.938 215.154 144.938C220.571 144.938 224.613 143.994 228.709 141.772C233.304 139.28 236.067 136.29 237.835 131.898L238.486 130.282L238.492 136.875C238.496 140.501 238.575 143.67 238.668 143.918C238.82 144.323 240.808 144.368 258.282 144.368C268.976 144.368 277.925 144.29 278.167 144.195C278.553 144.044 278.608 143.124 278.608 136.802V129.582L272.689 129.505L266.77 129.428L266.631 107.374C266.521 89.9869 266.414 85.1388 266.124 84.4666C265.499 83.0153 264.439 81.8082 263.07 80.9869C261.827 80.2413 261.54 80.1938 257.718 80.0996C255.497 80.0447 253.615 80.0666 253.537 80.1485ZM336.055 80.6639C335.511 81.2237 335.548 143.595 336.093 144.057C336.58 144.47 350.878 144.469 351.633 144.056C351.912 143.903 352.137 143.559 352.134 143.291C352.131 143.023 351.453 140.905 350.628 138.586C349.529 135.499 349.223 134.332 349.483 134.23C349.678 134.154 350.493 134.13 351.292 134.178L352.746 134.266L353.766 136.245C354.924 138.493 357.812 141.795 359.51 142.811C360.575 143.449 361.761 143.877 364.566 144.63C366.18 145.064 371.753 144.996 373.586 144.521C376.485 143.769 377.132 143.507 378.769 142.424C382.34 140.061 385.076 135.781 386.44 130.424C386.885 128.676 387.508 123.516 387.506 121.602C387.503 119.49 386.922 115.433 386.264 112.923C385.255 109.074 382.435 104.581 379.736 102.52C376.743 100.235 373.906 99.4156 368.991 99.4156C361.169 99.4156 356.746 102.007 353.56 108.456L352.688 110.219H350.852C349.214 110.219 349.038 110.166 349.214 109.721C349.323 109.448 349.512 108.903 349.635 108.512C349.758 108.121 350.34 106.52 350.929 104.955L352 102.109L352.077 91.5224C352.148 81.6265 352.12 80.9192 351.659 80.6824C351.387 80.5432 347.843 80.4015 343.784 80.3674C338.156 80.3204 336.32 80.391 336.055 80.6639ZM280.279 113.563C280.279 129.56 280.399 130.601 282.848 135.781C284.35 138.958 286.859 141.586 289.817 143.079C292.538 144.453 293.599 144.693 297.703 144.852C301.552 145.001 303.622 144.594 306.239 143.173C309.931 141.169 312.731 137.467 314.105 132.772L314.626 130.993H316.392C317.364 130.993 318.159 131.048 318.159 131.116C318.159 131.184 317.772 132.304 317.3 133.606C316.828 134.908 316.26 136.549 316.038 137.254C315.816 137.958 315.513 138.757 315.365 139.028C315.216 139.3 315.095 140.48 315.095 141.651C315.095 143.483 315.172 143.821 315.649 144.082C316.219 144.393 330.359 144.481 331.133 144.178C331.47 144.046 331.528 140.779 331.528 122.141V100.259H323.312H315.095V110.006C315.095 119.709 314.984 121.178 314.011 124.412C313.074 127.523 310.43 129.503 306.375 130.131C303.196 130.624 300.237 130.015 298.834 128.582C296.679 126.38 296.434 124.613 296.434 111.286V100.259H288.356H280.279V113.563ZM366.266 114.681C367.881 115.179 369.851 116.736 370.307 117.874C371.5 120.848 371.267 124.942 369.784 127.098C368.107 129.535 363.725 130.792 359.149 130.147C354.199 129.449 352.14 127.096 352.14 122.14C352.14 118.317 353.36 116.017 355.984 114.897C358.295 113.911 363.422 113.802 366.266 114.681Z" fill="#FF019A"/>
<path fill-rule="evenodd" clip-rule="evenodd" d="M253.537 80.1485C253.459 80.2302 250.513 80.3244 246.991 80.3577C243.47 80.3907 240.368 80.5327 240.1 80.6733C239.656 80.9058 239.613 81.5521 239.613 88.0022C239.613 93.9512 239.678 95.1015 240.021 95.2361C240.245 95.324 241.913 95.2666 243.726 95.1084C245.54 94.9501 247.769 94.8599 248.68 94.9077L250.336 94.9948L250.408 112.051C250.465 125.507 250.406 129.155 250.13 129.334C249.937 129.459 247.299 129.564 244.267 129.566L238.754 129.57L238.944 127.436L239.133 125.302H230.934H222.735L222.385 126.288C221.614 128.47 218.591 130.154 215.299 130.238C212.922 130.298 211.159 129.711 209.652 128.355C207.764 126.657 207.176 125.149 207.184 122.029C207.19 119.866 207.3 119.247 207.894 118.045C208.706 116.399 210.424 114.939 212.12 114.451C213.624 114.018 216.581 114.018 218.085 114.451C219.667 114.906 221.508 116.39 222.295 117.845L222.943 119.041H231.04H239.136L238.972 117.263C238.204 108.978 232.222 102.791 222.344 100.067C219.622 99.3163 210.219 99.3323 207.304 100.093C200.477 101.873 195.535 105.694 192.998 111.152C190.559 116.398 190.087 121.756 191.462 128.574C192.741 134.916 197.189 140.226 203.405 142.833C206.929 144.311 210.424 144.938 215.154 144.938C220.571 144.938 224.613 143.994 228.709 141.772C233.304 139.28 236.067 136.29 237.835 131.898L238.486 130.282L238.492 136.875C238.496 140.501 238.575 143.67 238.668 143.918C238.82 144.323 240.808 144.368 258.282 144.368C268.976 144.368 277.925 144.29 278.167 144.195C278.553 144.044 278.608 143.124 278.608 136.802V129.582L272.689 129.505L266.77 129.428L266.631 107.374C266.521 89.9869 266.414 85.1388 266.124 84.4666C265.499 83.0153 264.439 81.8082 263.07 80.9869C261.827 80.2413 261.54 80.1938 257.718 80.0996C255.497 80.0447 253.615 80.0666 253.537 80.1485ZM336.055 80.6639C335.511 81.2237 335.548 143.595 336.093 144.057C336.58 144.47 350.878 144.469 351.633 144.056C351.912 143.903 352.137 143.559 352.134 143.291C352.131 143.023 351.453 140.905 350.628 138.586C349.529 135.499 349.223 134.332 349.483 134.23C349.678 134.154 350.493 134.13 351.292 134.178L352.746 134.266L353.766 136.245C354.924 138.493 357.812 141.795 359.51 142.811C360.575 143.449 361.761 143.877 364.566 144.63C366.18 145.064 371.753 144.996 373.586 144.521C376.485 143.769 377.132 143.507 378.769 142.424C382.34 140.061 385.076 135.781 386.44 130.424C386.885 128.676 387.508 123.516 387.506 121.602C387.503 119.49 386.922 115.433 386.264 112.923C385.255 109.074 382.435 104.581 379.736 102.52C376.743 100.235 373.906 99.4156 368.991 99.4156C361.169 99.4156 356.746 102.007 353.56 108.456L352.688 110.219H350.852C349.214 110.219 349.038 110.166 349.214 109.721C349.323 109.448 349.512 108.903 349.635 108.512C349.758 108.121 350.34 106.52 350.929 104.955L352 102.109L352.077 91.5224C352.148 81.6265 352.12 80.9192 351.659 80.6824C351.387 80.5432 347.843 80.4015 343.784 80.3674C338.156 80.3204 336.32 80.391 336.055 80.6639ZM280.279 113.563C280.279 129.56 280.399 130.601 282.848 135.781C284.35 138.958 286.859 141.586 289.817 143.079C292.538 144.453 293.599 144.693 297.703 144.852C301.552 145.001 303.622 144.594 306.239 143.173C309.931 141.169 312.731 137.467 314.105 132.772L314.626 130.993H316.392C317.364 130.993 318.159 131.048 318.159 131.116C318.159 131.184 317.772 132.304 317.3 133.606C316.828 134.908 316.26 136.549 316.038 137.254C315.816 137.958 315.513 138.757 315.365 139.028C315.216 139.3 315.095 140.48 315.095 141.651C315.095 143.483 315.172 143.821 315.649 144.082C316.219 144.393 330.359 144.481 331.133 144.178C331.47 144.046 331.528 140.779 331.528 122.141V100.259H323.312H315.095V110.006C315.095 119.709 314.984 121.178 314.011 124.412C313.074 127.523 310.43 129.503 306.375 130.131C303.196 130.624 300.237 130.015 298.834 128.582C296.679 126.38 296.434 124.613 296.434 111.286V100.259H288.356H280.279V113.563ZM366.266 114.681C367.881 115.179 369.851 116.736 370.307 117.874C371.5 120.848 371.267 124.942 369.784 127.098C368.107 129.535 363.725 130.792 359.149 130.147C354.199 129.449 352.14 127.096 352.14 122.14C352.14 118.317 353.36 116.017 355.984 114.897C358.295 113.911 363.422 113.802 366.266 114.681Z" fill="#FF019A"/>
<path fill-rule="evenodd" clip-rule="evenodd" d="M253.537 80.1485C253.459 80.2302 250.513 80.3244 246.991 80.3577C243.47 80.3907 240.368 80.5327 240.1 80.6733C239.656 80.9058 239.613 81.5521 239.613 88.0022C239.613 93.9512 239.678 95.1015 240.021 95.2361C240.245 95.324 241.913 95.2666 243.726 95.1084C245.54 94.9501 247.769 94.8599 248.68 94.9077L250.336 94.9948L250.408 112.051C250.465 125.507 250.406 129.155 250.13 129.334C249.937 129.459 247.299 129.564 244.267 129.566L238.754 129.57L238.944 127.436L239.133 125.302H230.934H222.735L222.385 126.288C221.614 128.47 218.591 130.154 215.299 130.238C212.922 130.298 211.159 129.711 209.652 128.355C207.764 126.657 207.176 125.149 207.184 122.029C207.19 119.866 207.3 119.247 207.894 118.045C208.706 116.399 210.424 114.939 212.12 114.451C213.624 114.018 216.581 114.018 218.085 114.451C219.667 114.906 221.508 116.39 222.295 117.845L222.943 119.041H231.04H239.136L238.972 117.263C238.204 108.978 232.222 102.791 222.344 100.067C219.622 99.3163 210.219 99.3323 207.304 100.093C200.477 101.873 195.535 105.694 192.998 111.152C190.559 116.398 190.087 121.756 191.462 128.574C192.741 134.916 197.189 140.226 203.405 142.833C206.929 144.311 210.424 144.938 215.154 144.938C220.571 144.938 224.613 143.994 228.709 141.772C233.304 139.28 236.067 136.29 237.835 131.898L238.486 130.282L238.492 136.875C238.496 140.501 238.575 143.67 238.668 143.918C238.82 144.323 240.808 144.368 258.282 144.368C268.976 144.368 277.925 144.29 278.167 144.195C278.553 144.044 278.608 143.124 278.608 136.802V129.582L272.689 129.505L266.77 129.428L266.631 107.374C266.521 89.9869 266.414 85.1388 266.124 84.4666C265.499 83.0153 264.439 81.8082 263.07 80.9869C261.827 80.2413 261.54 80.1938 257.718 80.0996C255.497 80.0447 253.615 80.0666 253.537 80.1485ZM336.055 80.6639C335.511 81.2237 335.548 143.595 336.093 144.057C336.58 144.47 350.878 144.469 351.633 144.056C351.912 143.903 352.137 143.559 352.134 143.291C352.131 143.023 351.453 140.905 350.628 138.586C349.529 135.499 349.223 134.332 349.483 134.23C349.678 134.154 350.493 134.13 351.292 134.178L352.746 134.266L353.766 136.245C354.924 138.493 357.812 141.795 359.51 142.811C360.575 143.449 361.761 143.877 364.566 144.63C366.18 145.064 371.753 144.996 373.586 144.521C376.485 143.769 377.132 143.507 378.769 142.424C382.34 140.061 385.076 135.781 386.44 130.424C386.885 128.676 387.508 123.516 387.506 121.602C387.503 119.49 386.922 115.433 386.264 112.923C385.255 109.074 382.435 104.581 379.736 102.52C376.743 100.235 373.906 99.4156 368.991 99.4156C361.169 99.4156 356.746 102.007 353.56 108.456L352.688 110.219H350.852C349.214 110.219 349.038 110.166 349.214 109.721C349.323 109.448 349.512 108.903 349.635 108.512C349.758 108.121 350.34 106.52 350.929 104.955L352 102.109L352.077 91.5224C352.148 81.6265 352.12 80.9192 351.659 80.6824C351.387 80.5432 347.843 80.4015 343.784 80.3674C338.156 80.3204 336.32 80.391 336.055 80.6639ZM280.279 113.563C280.279 129.56 280.399 130.601 282.848 135.781C284.35 138.958 286.859 141.586 289.817 143.079C292.538 144.453 293.599 144.693 297.703 144.852C301.552 145.001 303.622 144.594 306.239 143.173C309.931 141.169 312.731 137.467 314.105 132.772L314.626 130.993H316.392C317.364 130.993 318.159 131.048 318.159 131.116C318.159 131.184 317.772 132.304 317.3 133.606C316.828 134.908 316.26 136.549 316.038 137.254C315.816 137.958 315.513 138.757 315.365 139.028C315.216 139.3 315.095 140.48 315.095 141.651C315.095 143.483 315.172 143.821 315.649 144.082C316.219 144.393 330.359 144.481 331.133 144.178C331.47 144.046 331.528 140.779 331.528 122.141V100.259H323.312H315.095V110.006C315.095 119.709 314.984 121.178 314.011 124.412C313.074 127.523 310.43 129.503 306.375 130.131C303.196 130.624 300.237 130.015 298.834 128.582C296.679 126.38 296.434 124.613 296.434 111.286V100.259H288.356H280.279V113.563ZM366.266 114.681C367.881 115.179 369.851 116.736 370.307 117.874C371.5 120.848 371.267 124.942 369.784 127.098C368.107 129.535 363.725 130.792 359.149 130.147C354.199 129.449 352.14 127.096 352.14 122.14C352.14 118.317 353.36 116.017 355.984 114.897C358.295 113.911 363.422 113.802 366.266 114.681Z" fill="#FF019A"/>
</svg>
