<svg width="175" height="194" viewBox="0 0 175 194" fill="none" xmlns="http://www.w3.org/2000/svg">
<path fill-rule="evenodd" clip-rule="evenodd" d="M103.324 0.346009C100.93 1.10441 98.8293 2.90838 97.7473 5.13464C96.4112 7.88402 96.4193 10.7235 97.7712 13.4741C98.9153 15.8019 101.025 17.5719 103.53 18.3072C104.844 18.6926 107.414 18.6877 108.731 18.2974C112.745 17.1081 115.482 13.4499 115.482 9.2735C115.482 5.29807 112.874 1.72069 109.008 0.392351C107.542 -0.111408 104.838 -0.133521 103.324 0.346009ZM102.473 24.403C101.713 24.4713 100.506 24.6461 99.7903 24.7915C98.5426 25.0448 95.502 25.9369 94.9934 26.1985C94.8593 26.2675 93.969 26.6886 93.0151 27.1342C92.0611 27.5799 90.6892 28.3238 89.9662 28.7876L88.6841 29.6154L87.3915 28.8235C86.0724 27.9786 83.9006 26.8351 83.6149 26.8351C83.503 26.8351 83.4482 29.8009 83.4482 35.8462V44.8573L84.058 45.3371C84.9485 46.0378 85.8153 46.4352 87.1656 46.7618C88.2042 47.013 88.5364 46.9291 89.6145 46.7618C92.978 46.2397 94.0991 43.7246 96.3414 42.0428C98.5837 40.3611 99.7048 39.8006 102.508 39.24C104.054 38.9308 106.696 39.0215 108.327 39.4257C113.36 40.6731 117.704 44.6641 119.413 49.6118C119.915 51.0637 119.943 51.2701 119.948 53.5028C119.953 56.1608 119.769 57.041 118.735 59.2889C117.465 62.049 116.951 62.635 107.369 72.2495C102.396 77.2388 97.909 81.6255 97.398 81.9976C96.3331 82.7732 94.5971 83.724 93.5299 84.1162C90.7357 85.2068 87.3722 85.2068 84.0088 84.6463L83.4482 84.0352V91.6763V99.3176H84.0174C85.2254 99.5602 88.5187 99.7701 90.0339 99.6786C95.6328 99.3403 100.799 97.6894 105.358 94.6223C106.922 93.5704 108.16 92.3971 116.999 83.5963C122.44 78.1794 127.337 73.1987 127.882 72.5279C131.851 67.6455 134.117 62.2432 134.783 56.0722C135.043 53.6674 135.043 53.3784 134.78 51.0871C134.462 48.3112 134.208 47.1284 133.416 44.7295C129.765 33.6809 119.398 25.4122 107.921 24.3947C105.921 24.2175 104.514 24.2196 102.473 24.403Z" fill="#FFD600"/>
<path fill-rule="evenodd" clip-rule="evenodd" d="M67.9003 0.395582C66.3438 0.930399 65.1195 1.72214 63.9717 2.93649C59.2014 7.98319 61.4803 16.2941 68.1865 18.307C69.4833 18.6963 72.0547 18.6981 73.3782 18.3107C76.2113 17.4816 78.593 15.2488 79.6326 12.4476C80.0697 11.2698 80.2445 8.81265 79.9884 7.44951C79.3773 4.198 76.6294 1.24391 73.3079 0.267609C71.9318 -0.136797 69.2663 -0.073867 67.9003 0.395582ZM68.5813 24.4032C59.0126 25.3521 49.9588 31.607 45.2854 40.4974C43.4135 44.0587 42.4915 47.2621 42.0563 51.7174C41.597 56.4197 42.9172 62.4074 45.4625 67.1651C46.3063 68.7424 47.9084 71.1545 49.0269 72.5312C49.5718 73.2019 54.4689 78.1803 59.9092 83.5942C68.6733 92.3157 69.9995 93.5721 71.544 94.6172C76.4858 97.9611 82.065 99.7057 87.9316 99.7412C89.3178 99.7496 91.2019 98.6925 91.8055 98.6216L92.5372 98.0525L92.6472 91.9498C92.6472 86.8224 91.5427 86.6123 91.4276 86.6123C91.3344 86.6123 89.2046 84.9049 88.5006 84.9049C87.7689 84.9049 86.2323 84.8999 84.4355 84.4197C82.8534 83.997 80.8456 83.0034 79.454 81.9545C78.8847 81.5255 74.3882 77.126 69.4616 72.1778C59.9356 62.6101 59.3916 61.9869 58.1223 59.184C57.202 57.1519 56.9548 55.9671 56.9548 53.5874C56.9548 51.1304 57.2216 49.9048 58.1869 47.9299C59.9255 44.3721 63.3056 41.2485 66.7926 39.9773C68.7624 39.259 69.4672 39.1358 71.5895 39.138C73.2567 39.1397 73.9535 39.213 74.8872 39.4845C76.2916 39.8932 78.0454 40.7225 79.3947 41.6162C80.4736 42.3307 80.6141 42.6269 82.4841 44.6595C84.4781 46.8269 86.9273 46.831 87.8216 46.9937C89.3664 46.6684 88.0465 45.7414 89.6103 44.9611L88.2568 37.2372L88.9599 36.5055L88.2568 32.6842L88.9071 30.0248L88.4193 29.4557C85.4924 27.2605 80.5855 25.2042 76.9556 24.7394C74.9622 24.2921 71.2168 24.1417 68.5813 24.4032Z" fill="#005AFF"/>
<path d="M95.6546 92.3823C95.6546 96.5134 92.3057 99.781 88.1747 99.781C84.0436 99.781 80.6947 96.5134 80.6947 92.3823C80.6947 88.2512 84.0436 84.9023 88.1747 84.9023C92.3057 84.9023 95.6546 88.2512 95.6546 92.3823Z" fill="#7784F7"/>
<path d="M95.4913 39.6974C95.4913 43.8285 92.1424 47.0961 88.0113 47.0961C83.8803 47.0961 80.5314 43.8285 80.5314 39.6974C80.5314 37.6751 81.26 35.7482 82.564 34.4019C82.8575 34.0988 84.0274 32.7866 85.247 31.8109C86.4853 30.9025 88.4179 29.4531 88.4179 29.4531C88.4179 29.4531 90.3982 31.0302 91.7513 32.3801C91.7818 32.4105 93.4287 34.1378 93.4587 34.1688C94.7627 35.5151 95.4913 37.6751 95.4913 39.6974Z" fill="#7784F7"/>
<path d="M1.90238 145.025C0.0890622 141.317 0 140.573 0 129.125L0 119.605H5.98041H11.9609V127.496C11.9609 137.032 12.1427 138.297 13.7382 139.873C14.7769 140.898 16.968 141.334 19.3212 140.981C22.324 140.532 24.2813 139.115 24.975 136.888C25.696 134.574 25.7779 133.523 25.7779 126.579V119.605H31.8613H37.9448V135.263C37.9448 148.601 37.9015 150.938 37.652 151.033C37.0793 151.25 26.6097 151.187 26.1877 150.964C25.8347 150.778 25.7779 150.536 25.7779 149.225C25.7779 148.387 25.8677 147.543 25.9775 147.348C26.0874 147.154 26.3117 146.582 26.476 146.078C26.6406 145.574 27.0612 144.4 27.4107 143.468C27.7603 142.536 28.0463 141.734 28.0463 141.686C28.0463 141.638 27.4577 141.598 26.7384 141.598H25.4308L25.0451 142.871C24.0272 146.231 21.9545 148.88 19.2208 150.314C17.2836 151.33 15.7509 151.622 12.9007 151.515C9.86202 151.401 9.0769 151.23 7.0619 150.247C4.87223 149.178 3.01412 147.298 1.90238 145.025Z" fill="#2C2C2E"/>
<path d="M79.1253 125.545C80.9386 129.252 81.0277 129.996 81.0277 141.444V150.964H75.0472H69.0668V143.073C69.0668 133.537 68.8851 132.272 67.2895 130.697C66.2508 129.671 64.0597 129.236 61.7065 129.588C58.7037 130.037 56.7465 131.454 56.0528 133.681C55.3318 135.995 55.2499 137.046 55.2499 143.99V150.964H49.1664H43.0829V135.306C43.0829 121.968 43.1261 119.631 43.3757 119.536C43.9483 119.319 54.418 119.382 54.8399 119.605C55.193 119.791 55.2499 120.033 55.2499 121.344C55.2499 122.182 55.16 123.027 55.0503 123.221C54.9404 123.416 54.7161 123.987 54.5517 124.491C54.3871 124.995 53.9666 126.17 53.6171 127.101C53.2675 128.033 52.9815 128.835 52.9815 128.883C52.9815 128.932 53.57 128.971 54.2894 128.971H55.597L55.9827 127.698C57.0006 124.338 59.0733 121.689 61.8069 120.255C63.7442 119.239 65.2768 118.947 68.127 119.054C71.1657 119.168 71.9508 119.339 73.9658 120.322C76.1554 121.391 78.0135 123.272 79.1253 125.545Z" fill="#2C2C2E"/>
<path d="M94.2658 109.301C94.8601 108.189 96.0828 107.316 97.5295 106.971C99.5035 106.499 102.092 106.69 103.527 107.414C104.47 107.889 105.543 108.932 105.86 109.68C106.03 110.082 106.159 111.037 106.159 111.893C106.159 114.666 104.98 116.124 102.24 116.739C100.508 117.128 98.9702 117.142 97.601 116.782C94.8168 116.049 93.7859 114.695 93.7859 111.771C93.7859 110.518 93.8834 110.016 94.2658 109.301Z" fill="#2C2C2E"/>
<path d="M90.6668 119.271C92.0988 119.257 94.3375 119.178 95.6418 119.095C99.7834 118.834 102.853 118.939 103.733 119.371C104.749 119.87 105.621 120.772 106.203 121.925C106.667 122.847 106.676 123.002 106.778 131.619L106.881 140.375L111.109 140.477L115.336 140.579V145.772V150.965H100.591H85.8463L85.7882 146.179C85.7562 143.547 85.7807 141.189 85.8426 140.939C85.954 140.49 86.0008 140.485 90.2315 140.43L94.5076 140.375V135.081V129.786L93.1673 129.792C92.43 129.795 90.7132 129.841 89.3521 129.894L86.8774 129.99L86.8224 124.772L86.7675 119.554L87.4153 119.426C87.7716 119.356 89.2348 119.286 90.6668 119.271Z" fill="#2C2C2E"/>
<path d="M135.778 150.789C134.346 150.803 132.107 150.882 130.803 150.965C126.661 151.226 123.591 151.121 122.712 150.689C121.696 150.19 120.823 149.288 120.242 148.135C119.778 147.213 119.768 147.058 119.667 138.441L119.564 129.685L115.336 129.583L111.109 129.481V124.288V119.095H120.047H131.515H140.598L140.657 123.881C140.689 126.513 140.664 128.871 140.602 129.121C140.491 129.57 140.444 129.575 136.213 129.63L131.937 129.685V134.979V140.274L133.278 140.268C134.015 140.265 135.732 140.219 137.093 140.166L139.567 140.07L139.622 145.288L139.677 150.506L139.029 150.634C138.673 150.704 137.21 150.774 135.778 150.789Z" fill="#2C2C2E"/>
<path d="M153.632 109.371C154.227 108.259 155.449 107.386 156.896 107.04C158.87 106.569 161.458 106.76 162.894 107.484C163.836 107.959 164.91 109.001 165.226 109.749C165.396 110.152 165.526 111.107 165.526 111.962C165.526 114.735 164.347 116.193 161.606 116.809C159.874 117.198 158.337 117.212 156.968 116.852C154.183 116.119 153.152 114.765 153.152 111.84C153.152 110.588 153.25 110.086 153.632 109.371Z" fill="#2C2C2E"/>
<path d="M150.033 119.341C151.465 119.326 153.704 119.247 155.008 119.165C159.15 118.904 162.22 119.009 163.1 119.441C164.115 119.939 164.988 120.842 165.569 121.995C166.034 122.917 166.043 123.071 166.144 131.688L166.247 140.445L170.475 140.547L174.703 140.649V145.842V151.034H159.958H145.213L145.155 146.249C145.123 143.617 145.147 141.259 145.209 141.009C145.32 140.56 145.367 140.555 149.598 140.5L153.874 140.445V135.15V129.856L152.534 129.861C151.796 129.864 150.08 129.91 148.719 129.963L146.244 130.059L146.189 124.841L146.134 119.624L146.782 119.496C147.138 119.426 148.601 119.356 150.033 119.341Z" fill="#2C2C2E"/>
<path fill-rule="evenodd" clip-rule="evenodd" d="M63.9804 151.587C63.9303 151.639 62.0392 151.7 59.7781 151.721C57.5171 151.742 55.5261 151.834 55.3541 151.924C55.0687 152.073 55.0412 152.488 55.0412 156.629C55.0412 160.448 55.0828 161.187 55.3029 161.273C55.4471 161.33 56.5177 161.293 57.682 161.191C58.8465 161.09 60.2775 161.032 60.8624 161.062L61.9256 161.118L61.9718 172.069C62.0081 180.708 61.9704 183.05 61.793 183.165C61.6693 183.245 59.9755 183.312 58.0289 183.313L54.4899 183.316L54.6113 181.946L54.7329 180.576H49.4691H44.2052L43.9809 181.209C43.4854 182.609 41.5448 183.691 39.4311 183.745C37.9051 183.783 36.7736 183.406 35.806 182.536C34.5938 181.446 34.2161 180.478 34.2215 178.475C34.2253 177.086 34.2959 176.689 34.6771 175.917C35.1988 174.86 36.3015 173.923 37.3905 173.609C38.3559 173.331 40.2546 173.331 41.22 173.609C42.2357 173.902 43.4175 174.854 43.9232 175.788L44.3389 176.556H49.5372H54.7352L54.6295 175.414C54.1369 170.096 50.2961 166.124 43.9545 164.375C42.2065 163.893 36.1702 163.903 34.2983 164.391C29.9155 165.535 26.743 167.987 25.1139 171.491C23.5482 174.86 23.2449 178.299 24.1277 182.677C24.9489 186.748 27.8044 190.157 31.7956 191.831C34.0577 192.78 36.3013 193.182 39.3383 193.182C42.8163 193.182 45.4108 192.576 48.0407 191.149C50.9907 189.55 52.7647 187.63 53.8997 184.811L54.3175 183.773L54.3216 188.006C54.3239 190.334 54.3747 192.368 54.4344 192.527C54.5319 192.787 55.8083 192.816 67.0267 192.816C73.8926 192.816 79.6375 192.767 79.7931 192.706C80.0408 192.609 80.076 192.017 80.076 187.959V183.323L76.2761 183.274L72.4762 183.225L72.3867 169.066C72.3162 157.903 72.2474 154.791 72.0615 154.359C71.66 153.427 70.9798 152.652 70.1007 152.125C69.3026 151.647 69.1187 151.616 66.6646 151.556C65.2385 151.52 64.0306 151.534 63.9804 151.587ZM116.957 151.918C116.608 152.277 116.632 192.32 116.982 192.617C117.295 192.882 126.474 192.881 126.959 192.616C127.138 192.518 127.282 192.297 127.28 192.125C127.278 191.953 126.843 190.593 126.314 189.105C125.608 187.122 125.412 186.373 125.579 186.308C125.704 186.259 126.227 186.244 126.74 186.275L127.673 186.331L128.328 187.601C129.072 189.045 130.926 191.165 132.016 191.817C132.7 192.227 133.461 192.501 135.262 192.985C136.298 193.263 139.876 193.219 141.053 192.915C142.914 192.432 143.329 192.264 144.38 191.568C146.673 190.051 148.429 187.303 149.305 183.864C149.591 182.742 149.991 179.429 149.989 178.201C149.987 176.844 149.615 174.24 149.192 172.628C148.544 170.158 146.734 167.273 145.001 165.95C143.08 164.483 141.258 163.957 138.103 163.957C133.081 163.957 130.242 165.62 128.196 169.761L127.636 170.893H126.458C125.406 170.893 125.293 170.858 125.406 170.573C125.476 170.397 125.597 170.048 125.676 169.797C125.755 169.545 126.129 168.518 126.507 167.513L127.195 165.686L127.244 158.889C127.289 152.536 127.272 152.082 126.975 151.93C126.801 151.84 124.526 151.749 121.919 151.727C118.306 151.697 117.128 151.743 116.957 151.918ZM81.1489 173.039C81.1489 183.31 81.2261 183.978 82.7984 187.304C83.7625 189.343 85.3736 191.03 87.2723 191.989C89.0196 192.871 89.7003 193.025 92.3352 193.127C94.8066 193.223 96.1356 192.961 97.8155 192.049C100.186 190.763 101.983 188.386 102.866 185.371L103.2 184.23H104.334C104.958 184.23 105.468 184.265 105.468 184.309C105.468 184.352 105.22 185.071 104.917 185.907C104.614 186.743 104.249 187.797 104.107 188.249C103.964 188.701 103.77 189.214 103.674 189.388C103.579 189.563 103.501 190.32 103.501 191.072C103.501 192.248 103.55 192.465 103.857 192.633C104.222 192.833 113.301 192.889 113.797 192.694C114.014 192.609 114.051 190.512 114.051 178.546V164.498H108.776H103.501V170.756C103.501 176.985 103.43 177.928 102.805 180.004C102.203 182.002 100.506 183.273 97.9025 183.676C95.862 183.992 93.9621 183.602 93.0614 182.682C91.6778 181.268 91.5203 180.133 91.5203 171.578V164.498H86.3346H81.1489V173.039ZM136.353 173.757C137.39 174.077 138.655 175.076 138.948 175.807C139.713 177.716 139.564 180.345 138.612 181.729C137.536 183.294 134.722 184.1 131.784 183.686C128.606 183.238 127.284 181.728 127.284 178.546C127.284 176.092 128.068 174.615 129.752 173.896C131.236 173.262 134.527 173.193 136.353 173.757Z" fill="#FF019A"/>
<path fill-rule="evenodd" clip-rule="evenodd" d="M63.9804 151.587C63.9303 151.639 62.0392 151.7 59.7781 151.721C57.5171 151.742 55.5261 151.834 55.3541 151.924C55.0687 152.073 55.0412 152.488 55.0412 156.629C55.0412 160.448 55.0828 161.187 55.3029 161.273C55.4471 161.33 56.5177 161.293 57.682 161.191C58.8465 161.09 60.2775 161.032 60.8624 161.062L61.9256 161.118L61.9718 172.069C62.0081 180.708 61.9704 183.05 61.793 183.165C61.6693 183.245 59.9755 183.312 58.0289 183.313L54.4899 183.316L54.6113 181.946L54.7329 180.576H49.4691H44.2052L43.9809 181.209C43.4854 182.609 41.5448 183.691 39.4311 183.745C37.9051 183.783 36.7736 183.406 35.806 182.536C34.5938 181.446 34.2161 180.478 34.2215 178.475C34.2253 177.086 34.2959 176.689 34.6771 175.917C35.1988 174.86 36.3015 173.923 37.3905 173.609C38.3559 173.331 40.2546 173.331 41.22 173.609C42.2357 173.902 43.4175 174.854 43.9232 175.788L44.3389 176.556H49.5372H54.7352L54.6295 175.414C54.1369 170.096 50.2961 166.124 43.9545 164.375C42.2065 163.893 36.1702 163.903 34.2983 164.391C29.9155 165.535 26.743 167.987 25.1139 171.491C23.5482 174.86 23.2449 178.299 24.1277 182.677C24.9489 186.748 27.8044 190.157 31.7956 191.831C34.0577 192.78 36.3013 193.182 39.3383 193.182C42.8163 193.182 45.4108 192.576 48.0407 191.149C50.9907 189.55 52.7647 187.63 53.8997 184.811L54.3175 183.773L54.3216 188.006C54.3239 190.334 54.3747 192.368 54.4344 192.527C54.5319 192.787 55.8083 192.816 67.0267 192.816C73.8926 192.816 79.6375 192.767 79.7931 192.706C80.0408 192.609 80.076 192.017 80.076 187.959V183.323L76.2761 183.274L72.4762 183.225L72.3867 169.066C72.3162 157.903 72.2474 154.791 72.0615 154.359C71.66 153.427 70.9798 152.652 70.1007 152.125C69.3026 151.647 69.1187 151.616 66.6646 151.556C65.2385 151.52 64.0306 151.534 63.9804 151.587ZM116.957 151.918C116.608 152.277 116.632 192.32 116.982 192.617C117.295 192.882 126.474 192.881 126.959 192.616C127.138 192.518 127.282 192.297 127.28 192.125C127.278 191.953 126.843 190.593 126.314 189.105C125.608 187.122 125.412 186.373 125.579 186.308C125.704 186.259 126.227 186.244 126.74 186.275L127.673 186.331L128.328 187.601C129.072 189.045 130.926 191.165 132.016 191.817C132.7 192.227 133.461 192.501 135.262 192.985C136.298 193.263 139.876 193.219 141.053 192.915C142.914 192.432 143.329 192.264 144.38 191.568C146.673 190.051 148.429 187.303 149.305 183.864C149.591 182.742 149.991 179.429 149.989 178.201C149.987 176.844 149.615 174.24 149.192 172.628C148.544 170.158 146.734 167.273 145.001 165.95C143.08 164.483 141.258 163.957 138.103 163.957C133.081 163.957 130.242 165.62 128.196 169.761L127.636 170.893H126.458C125.406 170.893 125.293 170.858 125.406 170.573C125.476 170.397 125.597 170.048 125.676 169.797C125.755 169.545 126.129 168.518 126.507 167.513L127.195 165.686L127.244 158.889C127.289 152.536 127.272 152.082 126.975 151.93C126.801 151.84 124.526 151.749 121.919 151.727C118.306 151.697 117.128 151.743 116.957 151.918ZM81.1489 173.039C81.1489 183.31 81.2261 183.978 82.7984 187.304C83.7625 189.343 85.3736 191.03 87.2723 191.989C89.0196 192.871 89.7003 193.025 92.3352 193.127C94.8066 193.223 96.1356 192.961 97.8155 192.049C100.186 190.763 101.983 188.386 102.866 185.371L103.2 184.23H104.334C104.958 184.23 105.468 184.265 105.468 184.309C105.468 184.352 105.22 185.071 104.917 185.907C104.614 186.743 104.249 187.797 104.107 188.249C103.964 188.701 103.77 189.214 103.674 189.388C103.579 189.563 103.501 190.32 103.501 191.072C103.501 192.248 103.55 192.465 103.857 192.633C104.222 192.833 113.301 192.889 113.797 192.694C114.014 192.609 114.051 190.512 114.051 178.546V164.498H108.776H103.501V170.756C103.501 176.985 103.43 177.928 102.805 180.004C102.203 182.002 100.506 183.273 97.9025 183.676C95.862 183.992 93.9621 183.602 93.0614 182.682C91.6778 181.268 91.5203 180.133 91.5203 171.578V164.498H86.3346H81.1489V173.039ZM136.353 173.757C137.39 174.077 138.655 175.076 138.948 175.807C139.713 177.716 139.564 180.345 138.612 181.729C137.536 183.294 134.722 184.1 131.784 183.686C128.606 183.238 127.284 181.728 127.284 178.546C127.284 176.092 128.068 174.615 129.752 173.896C131.236 173.262 134.527 173.193 136.353 173.757Z" fill="#FF019A"/>
<path fill-rule="evenodd" clip-rule="evenodd" d="M63.9804 151.587C63.9303 151.639 62.0392 151.7 59.7781 151.721C57.5171 151.742 55.5261 151.834 55.3541 151.924C55.0687 152.073 55.0412 152.488 55.0412 156.629C55.0412 160.448 55.0828 161.187 55.3029 161.273C55.4471 161.33 56.5177 161.293 57.682 161.191C58.8465 161.09 60.2775 161.032 60.8624 161.062L61.9256 161.118L61.9718 172.069C62.0081 180.708 61.9704 183.05 61.793 183.165C61.6693 183.245 59.9755 183.312 58.0289 183.313L54.4899 183.316L54.6113 181.946L54.7329 180.576H49.4691H44.2052L43.9809 181.209C43.4854 182.609 41.5448 183.691 39.4311 183.745C37.9051 183.783 36.7736 183.406 35.806 182.536C34.5938 181.446 34.2161 180.478 34.2215 178.475C34.2253 177.086 34.2959 176.689 34.6771 175.917C35.1988 174.86 36.3015 173.923 37.3905 173.609C38.3559 173.331 40.2546 173.331 41.22 173.609C42.2357 173.902 43.4175 174.854 43.9232 175.788L44.3389 176.556H49.5372H54.7352L54.6295 175.414C54.1369 170.096 50.2961 166.124 43.9545 164.375C42.2065 163.893 36.1702 163.903 34.2983 164.391C29.9155 165.535 26.743 167.987 25.1139 171.491C23.5482 174.86 23.2449 178.299 24.1277 182.677C24.9489 186.748 27.8044 190.157 31.7956 191.831C34.0577 192.78 36.3013 193.182 39.3383 193.182C42.8163 193.182 45.4108 192.576 48.0407 191.149C50.9907 189.55 52.7647 187.63 53.8997 184.811L54.3175 183.773L54.3216 188.006C54.3239 190.334 54.3747 192.368 54.4344 192.527C54.5319 192.787 55.8083 192.816 67.0267 192.816C73.8926 192.816 79.6375 192.767 79.7931 192.706C80.0408 192.609 80.076 192.017 80.076 187.959V183.323L76.2761 183.274L72.4762 183.225L72.3867 169.066C72.3162 157.903 72.2474 154.791 72.0615 154.359C71.66 153.427 70.9798 152.652 70.1007 152.125C69.3026 151.647 69.1187 151.616 66.6646 151.556C65.2385 151.52 64.0306 151.534 63.9804 151.587ZM116.957 151.918C116.608 152.277 116.632 192.32 116.982 192.617C117.295 192.882 126.474 192.881 126.959 192.616C127.138 192.518 127.282 192.297 127.28 192.125C127.278 191.953 126.843 190.593 126.314 189.105C125.608 187.122 125.412 186.373 125.579 186.308C125.704 186.259 126.227 186.244 126.74 186.275L127.673 186.331L128.328 187.601C129.072 189.045 130.926 191.165 132.016 191.817C132.7 192.227 133.461 192.501 135.262 192.985C136.298 193.263 139.876 193.219 141.053 192.915C142.914 192.432 143.329 192.264 144.38 191.568C146.673 190.051 148.429 187.303 149.305 183.864C149.591 182.742 149.991 179.429 149.989 178.201C149.987 176.844 149.615 174.24 149.192 172.628C148.544 170.158 146.734 167.273 145.001 165.95C143.08 164.483 141.258 163.957 138.103 163.957C133.081 163.957 130.242 165.62 128.196 169.761L127.636 170.893H126.458C125.406 170.893 125.293 170.858 125.406 170.573C125.476 170.397 125.597 170.048 125.676 169.797C125.755 169.545 126.129 168.518 126.507 167.513L127.195 165.686L127.244 158.889C127.289 152.536 127.272 152.082 126.975 151.93C126.801 151.84 124.526 151.749 121.919 151.727C118.306 151.697 117.128 151.743 116.957 151.918ZM81.1489 173.039C81.1489 183.31 81.2261 183.978 82.7984 187.304C83.7625 189.343 85.3736 191.03 87.2723 191.989C89.0196 192.871 89.7003 193.025 92.3352 193.127C94.8066 193.223 96.1356 192.961 97.8155 192.049C100.186 190.763 101.983 188.386 102.866 185.371L103.2 184.23H104.334C104.958 184.23 105.468 184.265 105.468 184.309C105.468 184.352 105.22 185.071 104.917 185.907C104.614 186.743 104.249 187.797 104.107 188.249C103.964 188.701 103.77 189.214 103.674 189.388C103.579 189.563 103.501 190.32 103.501 191.072C103.501 192.248 103.55 192.465 103.857 192.633C104.222 192.833 113.301 192.889 113.797 192.694C114.014 192.609 114.051 190.512 114.051 178.546V164.498H108.776H103.501V170.756C103.501 176.985 103.43 177.928 102.805 180.004C102.203 182.002 100.506 183.273 97.9025 183.676C95.862 183.992 93.9621 183.602 93.0614 182.682C91.6778 181.268 91.5203 180.133 91.5203 171.578V164.498H86.3346H81.1489V173.039ZM136.353 173.757C137.39 174.077 138.655 175.076 138.948 175.807C139.713 177.716 139.564 180.345 138.612 181.729C137.536 183.294 134.722 184.1 131.784 183.686C128.606 183.238 127.284 181.728 127.284 178.546C127.284 176.092 128.068 174.615 129.752 173.896C131.236 173.262 134.527 173.193 136.353 173.757Z" fill="#FF019A"/>
<path fill-rule="evenodd" clip-rule="evenodd" d="M63.9804 151.587C63.9303 151.639 62.0392 151.7 59.7781 151.721C57.5171 151.742 55.5261 151.834 55.3541 151.924C55.0687 152.073 55.0412 152.488 55.0412 156.629C55.0412 160.448 55.0828 161.187 55.3029 161.273C55.4471 161.33 56.5177 161.293 57.682 161.191C58.8465 161.09 60.2775 161.032 60.8624 161.062L61.9256 161.118L61.9718 172.069C62.0081 180.708 61.9704 183.05 61.793 183.165C61.6693 183.245 59.9755 183.312 58.0289 183.313L54.4899 183.316L54.6113 181.946L54.7329 180.576H49.4691H44.2052L43.9809 181.209C43.4854 182.609 41.5448 183.691 39.4311 183.745C37.9051 183.783 36.7736 183.406 35.806 182.536C34.5938 181.446 34.2161 180.478 34.2215 178.475C34.2253 177.086 34.2959 176.689 34.6771 175.917C35.1988 174.86 36.3015 173.923 37.3905 173.609C38.3559 173.331 40.2546 173.331 41.22 173.609C42.2357 173.902 43.4175 174.854 43.9232 175.788L44.3389 176.556H49.5372H54.7352L54.6295 175.414C54.1369 170.096 50.2961 166.124 43.9545 164.375C42.2065 163.893 36.1702 163.903 34.2983 164.391C29.9155 165.535 26.743 167.987 25.1139 171.491C23.5482 174.86 23.2449 178.299 24.1277 182.677C24.9489 186.748 27.8044 190.157 31.7956 191.831C34.0577 192.78 36.3013 193.182 39.3383 193.182C42.8163 193.182 45.4108 192.576 48.0407 191.149C50.9907 189.55 52.7647 187.63 53.8997 184.811L54.3175 183.773L54.3216 188.006C54.3239 190.334 54.3747 192.368 54.4344 192.527C54.5319 192.787 55.8083 192.816 67.0267 192.816C73.8926 192.816 79.6375 192.767 79.7931 192.706C80.0408 192.609 80.076 192.017 80.076 187.959V183.323L76.2761 183.274L72.4762 183.225L72.3867 169.066C72.3162 157.903 72.2474 154.791 72.0615 154.359C71.66 153.427 70.9798 152.652 70.1007 152.125C69.3026 151.647 69.1187 151.616 66.6646 151.556C65.2385 151.52 64.0306 151.534 63.9804 151.587ZM116.957 151.918C116.608 152.277 116.632 192.32 116.982 192.617C117.295 192.882 126.474 192.881 126.959 192.616C127.138 192.518 127.282 192.297 127.28 192.125C127.278 191.953 126.843 190.593 126.314 189.105C125.608 187.122 125.412 186.373 125.579 186.308C125.704 186.259 126.227 186.244 126.74 186.275L127.673 186.331L128.328 187.601C129.072 189.045 130.926 191.165 132.016 191.817C132.7 192.227 133.461 192.501 135.262 192.985C136.298 193.263 139.876 193.219 141.053 192.915C142.914 192.432 143.329 192.264 144.38 191.568C146.673 190.051 148.429 187.303 149.305 183.864C149.591 182.742 149.991 179.429 149.989 178.201C149.987 176.844 149.615 174.24 149.192 172.628C148.544 170.158 146.734 167.273 145.001 165.95C143.08 164.483 141.258 163.957 138.103 163.957C133.081 163.957 130.242 165.62 128.196 169.761L127.636 170.893H126.458C125.406 170.893 125.293 170.858 125.406 170.573C125.476 170.397 125.597 170.048 125.676 169.797C125.755 169.545 126.129 168.518 126.507 167.513L127.195 165.686L127.244 158.889C127.289 152.536 127.272 152.082 126.975 151.93C126.801 151.84 124.526 151.749 121.919 151.727C118.306 151.697 117.128 151.743 116.957 151.918ZM81.1489 173.039C81.1489 183.31 81.2261 183.978 82.7984 187.304C83.7625 189.343 85.3736 191.03 87.2723 191.989C89.0196 192.871 89.7003 193.025 92.3352 193.127C94.8066 193.223 96.1356 192.961 97.8155 192.049C100.186 190.763 101.983 188.386 102.866 185.371L103.2 184.23H104.334C104.958 184.23 105.468 184.265 105.468 184.309C105.468 184.352 105.22 185.071 104.917 185.907C104.614 186.743 104.249 187.797 104.107 188.249C103.964 188.701 103.77 189.214 103.674 189.388C103.579 189.563 103.501 190.32 103.501 191.072C103.501 192.248 103.55 192.465 103.857 192.633C104.222 192.833 113.301 192.889 113.797 192.694C114.014 192.609 114.051 190.512 114.051 178.546V164.498H108.776H103.501V170.756C103.501 176.985 103.43 177.928 102.805 180.004C102.203 182.002 100.506 183.273 97.9025 183.676C95.862 183.992 93.9621 183.602 93.0614 182.682C91.6778 181.268 91.5203 180.133 91.5203 171.578V164.498H86.3346H81.1489V173.039ZM136.353 173.757C137.39 174.077 138.655 175.076 138.948 175.807C139.713 177.716 139.564 180.345 138.612 181.729C137.536 183.294 134.722 184.1 131.784 183.686C128.606 183.238 127.284 181.728 127.284 178.546C127.284 176.092 128.068 174.615 129.752 173.896C131.236 173.262 134.527 173.193 136.353 173.757Z" fill="#FF019A"/>
</svg>
