<svg width="52" height="95" viewBox="0 0 52 95" fill="none" xmlns="http://www.w3.org/2000/svg">
<path fill-rule="evenodd" clip-rule="evenodd" d="M15.2689 24.503C15.5853 24.6321 15.9382 25.1643 16.0291 25.6493C16.1141 26.1032 15.5851 26.6101 15.116 26.5241C14.5299 26.4168 14.022 25.2672 14.3623 24.8184C14.5143 24.6179 14.8042 24.4309 14.9629 24.4309C15.0339 24.4309 15.1716 24.4633 15.2689 24.503ZM12.1475 25.9102C12.3616 26.0377 12.6276 26.4806 12.7127 26.8512C12.7931 27.2011 12.721 27.4669 12.4861 27.6867C12.3396 27.8238 12.2794 27.8432 12.0009 27.8432C11.725 27.8432 11.6617 27.8233 11.5214 27.6919C11.2902 27.4756 11.0258 26.9629 10.9932 26.6676C10.9233 26.0342 11.6048 25.587 12.1475 25.9102Z" fill="#015BFF"/>
<path d="M12.1475 25.9102C12.3616 26.0377 12.6276 26.4806 12.7127 26.8512C12.7931 27.2011 12.721 27.4669 12.4861 27.6867C12.3396 27.8238 12.2794 27.8432 12.0009 27.8432C11.725 27.8432 11.6617 27.8233 11.5214 27.6919C11.2902 27.4756 11.0258 26.9629 10.9932 26.6676C10.9233 26.0342 11.6048 25.587 12.1475 25.9102Z" fill="white"/>
<path d="M15.2689 24.503C15.5853 24.6321 15.9382 25.1643 16.0291 25.6493C16.1141 26.1032 15.5851 26.6101 15.116 26.5241C14.5299 26.4168 14.022 25.2672 14.3623 24.8184C14.5143 24.6179 14.8042 24.4309 14.9629 24.4309C15.0339 24.4309 15.1716 24.4633 15.2689 24.503Z" fill="white"/>
<path fill-rule="evenodd" clip-rule="evenodd" d="M15.8888 0.0441777C15.4423 0.0949664 15.2254 0.161786 14.7365 0.399064C13.5971 0.952026 12.8669 1.77338 12.4656 2.9531C12.1637 3.84101 12.1464 4.87031 12.4738 5.76939C12.5666 6.02444 12.7097 6.34584 12.7917 6.4836C13.1447 7.07661 13.2045 7.22205 13.1423 7.33553C13.061 7.48393 12.7754 7.52578 12.3672 7.44912C12.1807 7.41409 11.382 7.36944 10.5925 7.34987C9.80301 7.33029 9.12048 7.2912 9.07579 7.26306C9.0311 7.23486 8.38513 7.19227 7.64031 7.16846L6.0694 7.11805C5.3646 7.09524 4.18902 7.34479 3.5781 7.64688C2.86984 7.997 1.93049 8.85649 1.48191 9.56483C1.179 10.0431 0.924295 10.7281 0.783671 11.4426C0.657836 12.0818 0.654476 12.3419 0.762598 13.0602C0.85994 13.7068 0.898885 13.841 1.15278 14.4054C1.59734 15.3934 2.33594 16.2121 3.27686 16.7596C3.55188 16.9197 3.82348 17.0923 3.88042 17.1432C4.05928 17.3032 4.00527 17.4997 3.60058 18.1609C2.21612 20.4231 1.09498 23.2795 0.547818 25.9387C0.0519524 28.3484 0.0675505 27.9641 0.0315821 38.6358L0 48L34.2626 45.0807C34.2615 44.9113 34.2253 44.63 34.1822 44.4554C34.139 44.2808 34.1037 43.9237 34.1037 43.6618C34.1037 43.3999 34.139 43.0428 34.1822 42.8682C34.2253 42.6936 34.2615 42.4534 34.2626 42.3344C34.2645 42.1209 34.4095 41.3712 34.5685 40.752C34.7334 40.1102 35.1639 39.1018 35.556 38.4388C36.5842 36.6999 37.6112 35.619 39.2481 34.5532C40.2137 33.9244 41.6552 33.3143 42.7149 33.0859C44.1527 32.776 44.2024 32.7728 48.0627 32.7405L52 36C52 36 51.9843 33.6618 52 32C52.0225 29.6028 51.5362 25.8269 50.8119 23.56C50.1065 21.352 49.4123 19.8265 48.2928 18.0241C47.056 16.0327 45.7582 14.4364 44.0608 12.818C43.0498 11.8542 42.3083 11.2448 41.2627 10.5185C39.8261 9.52046 38.9501 9.00252 37.5959 8.35031C35.6299 7.40347 33.7906 6.75575 31.881 6.33791C29.1176 5.73315 27.7924 5.33551 25.9159 4.54813C24.2484 3.84841 21.7907 2.49288 20.3701 1.48943C19.2935 0.729032 18.7936 0.431604 18.2907 0.252362C17.63 0.0168819 16.7778 -0.0569765 15.8888 0.0441777ZM16.0291 25.6493C15.9382 25.1643 15.5853 24.6321 15.2689 24.503C15.1716 24.4633 15.0339 24.4309 14.9629 24.4309C14.8042 24.4309 14.5143 24.6179 14.3623 24.8184C14.022 25.2672 14.5299 26.4168 15.116 26.5241C15.5851 26.6101 16.1141 26.1032 16.0291 25.6493ZM12.7127 26.8512C12.6276 26.4806 12.3616 26.0377 12.1475 25.9102C11.6048 25.587 10.9233 26.0342 10.9932 26.6676C11.0258 26.9629 11.2902 27.4756 11.5214 27.6919C11.6617 27.8233 11.725 27.8432 12.0009 27.8432C12.2794 27.8432 12.3396 27.8238 12.4861 27.6867C12.721 27.4669 12.7931 27.2011 12.7127 26.8512Z" fill="#015BFF"/>
<mask id="mask0_1_96" style="mask-type:alpha" maskUnits="userSpaceOnUse" x="0" y="8" width="52" height="87">
<rect y="8.88184" width="51.9868" height="85.6381" rx="25.9934" fill="#C4C4C4"/>
</mask>
<g mask="url(#mask0_1_96)">
<path d="M66.1112 8.88184H-5.8615V98.8422H66.1112V8.88184Z" fill="url(#paint0_linear_1_96)"/>
</g>
<circle cx="15.7322" cy="29.5098" r="2" fill="white"/>
<circle cx="21.2249" cy="29.5098" r="2" fill="white"/>
<defs>
<linearGradient id="paint0_linear_1_96" x1="30.1248" y1="8.88184" x2="30" y2="105" gradientUnits="userSpaceOnUse">
<stop offset="0.453125" stop-color="#005AFF"/>
<stop offset="1" stop-color="#7BAAFF"/>
</linearGradient>
</defs>
</svg>
