<svg width="48" height="79" viewBox="0 0 48 79" fill="none" xmlns="http://www.w3.org/2000/svg">
<rect y="4.66895" width="48" height="73.766" rx="24" fill="url(#paint0_linear_40_35)"/>
<path fill-rule="evenodd" clip-rule="evenodd" d="M14.1379 21.1848C14.4308 21.2965 14.7576 21.7566 14.8417 22.1759C14.9205 22.5684 14.4307 23.0066 13.9963 22.9323C13.4536 22.8395 12.9833 21.8456 13.2984 21.4575C13.4391 21.2842 13.7076 21.1225 13.8545 21.1225C13.9203 21.1225 14.0478 21.1505 14.1379 21.1848ZM11.2477 22.4014C11.4459 22.5117 11.6922 22.8946 11.771 23.215C11.8455 23.5176 11.7787 23.7474 11.5612 23.9374C11.4256 24.0559 11.3698 24.0727 11.112 24.0727C10.8565 24.0727 10.7978 24.0555 10.6679 23.9419C10.4539 23.7549 10.2091 23.3116 10.1789 23.0563C10.1142 22.5087 10.7452 22.1221 11.2477 22.4014Z" fill="#FF019A"/>
<path d="M11.2477 22.4014C11.4459 22.5117 11.6922 22.8946 11.771 23.215C11.8455 23.5176 11.7787 23.7474 11.5612 23.9374C11.4256 24.0559 11.3698 24.0727 11.112 24.0727C10.8565 24.0727 10.7978 24.0555 10.6679 23.9419C10.4539 23.7549 10.2091 23.3116 10.1789 23.0563C10.1142 22.5087 10.7452 22.1221 11.2477 22.4014Z" fill="#FF019A"/>
<path d="M14.1379 21.1848C14.4308 21.2965 14.7576 21.7566 14.8417 22.1759C14.9205 22.5684 14.4307 23.0066 13.9963 22.9323C13.4536 22.8395 12.9833 21.8456 13.2984 21.4575C13.4391 21.2842 13.7076 21.1225 13.8545 21.1225C13.9203 21.1225 14.0478 21.1505 14.1379 21.1848Z" fill="#FF019A"/>
<path fill-rule="evenodd" clip-rule="evenodd" d="M14.7118 0.0381952C14.2984 0.0821061 14.0976 0.139877 13.6449 0.345023C12.5899 0.823104 11.9138 1.53323 11.5423 2.5532C11.2627 3.32086 11.2467 4.21077 11.5498 4.9881C11.6358 5.20862 11.7682 5.48649 11.8442 5.6056C12.171 6.1183 12.2264 6.24405 12.1688 6.34216C12.0935 6.47046 11.8291 6.50664 11.4511 6.44036C11.2784 6.41008 10.5389 6.37148 9.8079 6.35455C9.07687 6.33763 8.44489 6.30383 8.40351 6.2795C8.36213 6.25512 7.76401 6.2183 7.07436 6.19771L5.61981 6.15413C4.96722 6.13441 3.87873 6.35016 3.31306 6.61134C2.65726 6.91405 1.78749 7.65715 1.37214 8.26957C1.09166 8.68307 0.855829 9.27528 0.725622 9.89305C0.609108 10.4457 0.605996 10.6706 0.706109 11.2916C0.796241 11.8506 0.832301 11.9667 1.06739 12.4546C1.47902 13.3089 2.16291 14.0167 3.03413 14.4901C3.28878 14.6284 3.54026 14.7776 3.59298 14.8217C3.7586 14.9601 3.70859 15.1299 3.33387 15.7016C2.05196 17.6574 1.01387 20.127 0.507239 22.4261C0.0481041 24.5095 -0.05255 24.0727 0.0292427 33.4038L0 41.4999L31.7246 38.9759C31.7236 38.8295 31.6901 38.5862 31.6501 38.4353C31.6102 38.2843 31.5775 37.9756 31.5775 37.7491C31.5775 37.5227 31.6102 37.214 31.6501 37.063C31.6901 36.9121 31.7236 36.7044 31.7246 36.6015C31.7264 36.417 31.8606 35.7688 32.0079 35.2334C32.1606 34.6785 32.5591 33.8067 32.9222 33.2335C33.8743 31.73 34.8252 30.7955 36.3408 29.874C37.235 29.3304 38.5697 28.8029 39.5508 28.6054C40.8821 28.3375 40.9282 28.3347 44.5025 28.3068L47.5 31.2805C47.5 31.2805 47.9855 29.7435 48 28.3068C48.0209 26.2342 47.7187 22.3295 47.0481 20.3695C46.3949 18.4605 45.7521 17.1416 44.7155 15.5833C43.5703 13.8616 42.3687 12.4814 40.797 11.0822C39.8609 10.2489 39.1744 9.72203 38.2062 9.09405C36.876 8.2312 36.0649 7.78341 34.811 7.21952C32.9907 6.4009 31.2876 5.84089 29.5195 5.47963C26.9607 4.95677 25.7337 4.61298 23.9962 3.93223C22.4523 3.32726 20.1765 2.1553 18.8612 1.28774C17.8644 0.630307 17.4015 0.373156 16.9358 0.218187C16.3241 0.0145958 15.535 -0.0492608 14.7118 0.0381952ZM14.8417 22.1759C14.7576 21.7566 14.4308 21.2965 14.1379 21.1848C14.0478 21.1505 13.9203 21.1225 13.8545 21.1225C13.7076 21.1225 13.4391 21.2842 13.2984 21.4575C12.9833 21.8456 13.4536 22.8395 13.9963 22.9323C14.4307 23.0066 14.9205 22.5684 14.8417 22.1759ZM11.771 23.215C11.6922 22.8946 11.4459 22.5117 11.2477 22.4014C10.7452 22.1221 10.1142 22.5087 10.1789 23.0563C10.2091 23.3116 10.4539 23.7549 10.6679 23.9419C10.7978 24.0555 10.8565 24.0727 11.112 24.0727C11.3698 24.0727 11.4256 24.0559 11.5612 23.9374C11.7787 23.7474 11.8455 23.5176 11.771 23.215Z" fill="#FF019A"/>
<ellipse cx="10.5" cy="22.8772" rx="1.5" ry="1.40062" fill="white"/>
<ellipse cx="16.5" cy="22.8772" rx="1.5" ry="1.40062" fill="white"/>
<defs>
<linearGradient id="paint0_linear_40_35" x1="24" y1="4.66895" x2="24" y2="78.435" gradientUnits="userSpaceOnUse">
<stop offset="0.447917" stop-color="#FF019A"/>
<stop offset="1" stop-color="#FF32AD"/>
</linearGradient>
</defs>
</svg>
