<svg width="48" height="94" viewBox="0 0 48 94" fill="none" xmlns="http://www.w3.org/2000/svg">
<path d="M0 39C0 25.7452 10.7452 15 24 15C37.2548 15 48 25.7452 48 39V70C48 83.2548 37.2548 94 24 94C10.7452 94 0 83.2548 0 70V39Z" fill="url(#paint0_linear_40_52)"/>
<path d="M26 11C26 4.92487 30.9249 0 37 0C43.0751 0 48 4.92487 48 11V39C48 45.0751 43.0751 50 37 50C30.9249 50 26 45.0751 26 39V11Z" fill="#2C2C2E"/>
<circle cx="13.5" cy="32.5" r="1.5" fill="white"/>
<circle cx="20.5" cy="32.5" r="1.5" fill="white"/>
<defs>
<linearGradient id="paint0_linear_40_52" x1="24" y1="15" x2="24" y2="94" gradientUnits="userSpaceOnUse">
<stop offset="0.444974" stop-color="#2C2C2E"/>
<stop offset="1" stop-color="#363636"/>
</linearGradient>
</defs>
</svg>
