<svg width="426" height="374" viewBox="0 0 426 374" fill="none" xmlns="http://www.w3.org/2000/svg">
<path fill-rule="evenodd" clip-rule="evenodd" d="M272.219 303.22C271.96 303.281 270.636 303.334 269.277 303.339C267.549 303.346 266.593 303.403 266.099 303.53C265.711 303.63 265.181 303.713 264.922 303.715C264.468 303.719 263.352 303.914 261.627 304.293C261.174 304.392 260.648 304.473 260.458 304.472C259.923 304.47 255.631 305.65 253.213 306.465C250.927 307.236 247.487 308.632 245.224 309.707C241.008 311.709 233.934 316.509 230.611 319.623C230.064 320.134 229.326 320.793 228.97 321.086C228.032 321.859 224.23 325.887 223.391 326.998C222.996 327.52 222.287 328.434 221.815 329.031C220.477 330.72 219.218 332.461 218.544 333.556C216.695 336.556 215.475 338.236 214.632 338.944C212.692 340.572 211.269 341.362 209.081 342.026C208.232 342.284 207.896 342.297 200.079 342.377C195.012 342.43 191.595 342.516 190.993 342.606C187.387 343.146 183.597 345.582 181.33 348.817C180.457 350.062 179.363 352.399 179.006 353.78C178.513 355.688 177.67 358.435 177.874 360.583C178.275 364.796 180.8 369.244 184.038 371.7C184.478 372.034 185.812 372.614 186.687 373.083L188.07 373.716L340.886 372.507V371.178C340.885 369.288 340.837 368.396 340.711 367.895C340.615 367.516 340.536 366.729 340.536 366.146C340.535 365.563 340.455 364.662 340.359 364.144C340.263 363.627 339.995 362.163 339.764 360.893C338.949 356.416 337.279 350.402 335.89 346.946C334.98 344.681 333.385 341.417 333.051 341.138C332.628 340.784 332.426 340.804 331.814 341.258C329.097 343.274 327.221 344.284 325.087 344.881C323.85 345.227 323.622 345.251 321.573 345.251C319.473 345.252 319.331 345.236 318.177 344.872C316.742 344.419 315.646 343.852 314.291 342.865C312.971 341.903 311.06 339.827 310.384 338.62C309.745 337.479 308.76 334.519 308.76 333.739C308.76 333.435 308.672 332.754 308.566 332.227C308.386 331.336 308.386 331.209 308.566 330.447C308.672 329.995 308.76 329.462 308.76 329.261C308.76 328.544 309.78 326.881 310.301 325.734C311.109 323.952 312.885 323.258 314.673 321.414C316.396 319.637 315.105 318.531 314.673 318.011C314.144 317.372 309.446 313.951 307.745 312.964C307.235 312.668 306.553 312.249 306.229 312.032C303.904 310.475 297.643 307.632 293.558 306.279C291.366 305.553 286.35 304.347 284.458 304.092C284.005 304.03 283.449 303.922 283.223 303.85C282.997 303.779 282.573 303.72 282.281 303.72C281.989 303.72 281.565 303.656 281.338 303.577C281.112 303.499 279.683 303.388 278.162 303.33C276.641 303.273 274.787 303.2 274.043 303.169C273.299 303.137 272.478 303.16 272.219 303.22ZM246.12 322.705C246.55 323.001 246.897 323.715 246.897 324.304C246.897 324.993 246.181 326.246 245.446 326.842C244.972 327.226 244.867 327.26 244.3 327.21C243.817 327.167 243.596 327.074 243.328 326.8C242.901 326.366 242.691 325.733 242.79 325.176C242.882 324.651 243.906 322.983 244.282 322.744C244.902 322.352 245.586 322.337 246.12 322.705ZM252.471 327.233C253.379 327.821 253.522 328.871 252.853 330.05C252.63 330.442 252.224 330.984 251.95 331.252C251.533 331.663 251.372 331.741 250.95 331.741C250.654 331.741 250.287 331.637 250.058 331.488C249.645 331.22 249.218 330.398 249.215 329.865C249.212 329.131 250.294 327.374 250.914 327.107C251.345 326.921 252.083 326.981 252.471 327.233Z" fill="#FF019A"/>
<path d="M246.12 322.705C246.55 323.001 246.897 323.715 246.897 324.304C246.897 324.993 246.181 326.246 245.446 326.842C244.972 327.226 244.867 327.26 244.3 327.21C243.817 327.167 243.596 327.074 243.328 326.8C242.901 326.366 242.691 325.733 242.79 325.176C242.882 324.651 243.906 322.983 244.282 322.744C244.902 322.352 245.586 322.337 246.12 322.705Z" fill="white"/>
<path d="M252.471 327.233C253.379 327.821 253.522 328.871 252.853 330.05C252.63 330.442 252.224 330.984 251.95 331.252C251.533 331.663 251.372 331.741 250.95 331.741C250.654 331.741 250.287 331.637 250.058 331.488C249.645 331.22 249.218 330.398 249.215 329.865C249.212 329.131 250.294 327.374 250.914 327.107C251.345 326.921 252.083 326.981 252.471 327.233Z" fill="white"/>
<path fill-rule="evenodd" clip-rule="evenodd" d="M342.854 82.1444C342.662 82.2319 342.191 82.3075 341.807 82.3126C341.423 82.3178 340.978 82.3963 340.818 82.4872C340.658 82.5781 340.396 82.655 340.236 82.6583C340.076 82.6614 339.422 82.8393 338.782 83.0534C336.003 83.9835 333.711 85.2246 331.255 87.1293C330.609 87.6302 328.263 90.0018 327.543 90.8812C325.613 93.24 323.455 98.1413 323.134 100.892C323.081 101.347 322.981 101.825 322.911 101.954C322.832 102.1 322.784 103.003 322.784 104.323C322.784 105.922 322.74 106.578 322.61 106.947C322.514 107.217 322.435 107.586 322.435 107.767C322.435 107.948 322.363 108.266 322.274 108.475C322.186 108.684 322.022 109.141 321.91 109.491C321.607 110.442 320.557 112.396 319.917 113.202C318.614 114.843 317.257 115.96 315.521 116.818C313.19 117.97 312.076 118.239 309.275 118.326C308.149 118.361 307.085 118.443 306.912 118.508C306.738 118.574 306.188 118.627 305.688 118.627C305.143 118.627 304.611 118.697 304.361 118.801C304.131 118.896 303.691 118.974 303.382 118.974C303.074 118.974 302.352 119.122 301.779 119.303C301.205 119.483 300.317 119.751 299.805 119.896C299.294 120.042 298.628 120.285 298.326 120.435C298.024 120.586 297.719 120.709 297.648 120.709C297.432 120.709 294.917 121.931 294.378 122.298C294.1 122.488 293.636 122.762 293.349 122.907C293.061 123.052 292.55 123.385 292.214 123.646C291.878 123.907 291.284 124.355 290.892 124.641C289.881 125.381 287.234 127.842 286.518 128.708C283.55 132.297 281.868 135.29 280.615 139.212C279.97 141.234 279.865 141.643 279.737 142.649C279.679 143.108 279.583 143.577 279.524 143.69C279.465 143.803 279.389 144.469 279.355 145.168C279.322 145.868 279.236 146.587 279.166 146.766C279.074 146.999 279.037 153.564 279.037 169.968C279.037 190.041 279.016 192.896 278.863 193.26C278.767 193.488 278.688 193.887 278.688 194.145C278.688 194.403 278.61 194.802 278.514 195.03C278.418 195.259 278.339 195.551 278.339 195.681C278.339 196.454 276.761 200.087 275.705 201.745C274.469 203.685 272.481 205.991 271.184 206.989C270.864 207.236 270.262 207.701 269.846 208.024C269.43 208.347 268.749 208.799 268.333 209.029C267.918 209.259 267.495 209.517 267.394 209.602C256.155 213.355 240.992 207.499 230.234 215.89C228.765 217.036 227.074 220.262 226.144 221.65C226.144 221.054 225.227 222.912 224.992 223.263C224.436 224.095 224.005 226.258 224.005 226.478C224.005 226.572 223.866 226.921 223.696 227.253C223.527 227.585 223.347 228.012 223.298 228.203C223.249 228.394 223.075 228.914 222.911 229.36C222.748 229.805 222.613 230.309 222.611 230.48C222.61 230.651 222.552 230.937 222.483 231.116C221.992 232.381 221.987 239.589 222.476 240.787C222.549 240.966 222.609 241.279 222.608 241.481C222.608 241.846 222.835 242.651 223.146 243.386C223.235 243.595 223.307 243.841 223.307 243.933C223.307 244.102 223.661 244.901 224.483 246.591C225.331 248.331 225.751 248.966 227.88 251.72C228.425 252.425 229.614 253.582 230.23 254.007C230.55 254.227 231.161 254.679 231.587 255.01C233.092 256.177 236.699 258.105 237.85 258.358C238.01 258.393 238.298 258.475 238.49 258.54C238.919 258.685 239.73 258.892 240.352 259.015C240.608 259.066 240.965 259.166 241.145 259.239C241.325 259.311 241.839 259.37 242.287 259.37C242.735 259.37 243.216 259.435 243.356 259.515C243.521 259.609 244.4 259.684 245.878 259.731C247.126 259.77 248.383 259.868 248.671 259.948C250.399 260.429 251.721 260.926 252.716 261.468C253.672 261.988 254.099 262.328 255.458 263.647C257.19 265.33 257.747 266.068 258.644 267.87C259.339 269.269 259.655 270.31 259.978 272.265C260.073 272.841 260.123 278.243 260.152 291.016C260.197 311.005 260.121 309.375 260.992 309.116C261.237 309.043 261.674 308.983 261.962 308.983C262.251 308.983 262.709 308.905 262.981 308.81C263.287 308.702 263.895 308.636 264.571 308.636C265.28 308.636 265.812 308.575 266.083 308.463C266.407 308.328 267.037 308.288 268.9 308.285C270.762 308.282 271.366 308.244 271.591 308.116C271.979 307.895 273.311 307.895 273.842 308.116C274.166 308.25 274.78 308.289 276.576 308.289C278.337 308.289 279.01 308.331 279.386 308.463C279.69 308.569 280.299 308.636 280.964 308.636C281.56 308.636 282.195 308.695 282.375 308.766C282.555 308.837 283.095 308.94 283.575 308.994C284.055 309.047 284.814 309.171 285.262 309.269C285.71 309.367 286.469 309.525 286.949 309.619C287.429 309.713 288.136 309.866 288.52 309.958C288.904 310.05 289.453 310.182 289.741 310.251C290.029 310.32 290.396 310.421 290.556 310.476C290.716 310.531 291.396 310.741 292.068 310.943C293.878 311.488 295.997 312.223 297.42 312.799C299.449 313.621 303.394 315.445 304.446 316.048C307.718 317.924 310.677 319.771 311.779 320.625C313.308 321.81 313.672 322.049 313.944 322.05C314.175 322.051 314.99 321.296 317.784 318.493C319.734 316.535 321.565 314.623 321.854 314.242C323.377 312.233 325.576 308.607 325.576 308.107C325.576 308.012 325.701 307.689 325.852 307.389C326.157 306.787 327.018 304.23 327.283 303.143C327.375 302.761 327.521 301.946 327.606 301.332C327.69 300.718 327.805 300.145 327.861 300.06C327.916 299.975 327.996 291.11 328.039 280.36C328.114 261.389 328.172 258.318 328.463 257.788C328.539 257.649 328.604 257.258 328.607 256.92C328.609 256.582 328.687 256.097 328.779 255.843C328.871 255.589 328.948 255.272 328.949 255.139C328.951 254.88 330.031 251.627 330.463 250.581C331.029 249.21 332.383 246.479 332.86 245.745C333.992 244.004 334.621 243.119 335.123 242.557C335.414 242.232 335.735 241.835 335.836 241.676C335.937 241.517 336.435 240.945 336.943 240.404C337.452 239.863 337.901 239.332 337.941 239.223C337.991 239.09 337.852 238.821 337.526 238.413C337.029 237.793 336.813 237.49 336.001 236.281C335.433 235.435 334.354 233.313 334.116 232.575C333.8 231.592 333.477 230.415 333.378 229.88C333.325 229.594 333.218 229.047 333.14 228.666C332.97 227.836 333.04 222.272 333.226 221.727C333.292 221.536 333.438 221.042 333.551 220.628C334.062 218.76 335.021 216.543 335.854 215.302C337.943 212.19 339.518 210.566 342.04 208.923C343.785 207.787 344.965 207.224 346.868 206.619C348.494 206.102 348.665 206.057 348.968 206.057C349.141 206.057 349.505 205.979 349.777 205.883C350.181 205.741 351.033 205.71 354.449 205.71C357.899 205.71 358.699 205.68 359.044 205.536C359.274 205.441 359.652 205.362 359.884 205.362C360.116 205.361 360.851 205.177 361.517 204.952C362.906 204.482 362.991 204.443 363.855 203.875C365.937 202.507 367.023 201.3 368.158 199.09C368.607 198.217 368.974 197.368 368.974 197.204C368.974 197.04 369.04 196.792 369.119 196.653C369.229 196.462 369.287 194.547 369.354 188.883C369.486 177.848 369.494 104.032 369.364 102.436C369.304 101.705 369.192 100.993 369.115 100.854C369.037 100.715 368.974 100.403 368.975 100.16C368.975 99.6658 368.816 99.1162 368.027 96.8853C367.648 95.8148 366.463 93.533 365.692 92.3876C365.289 91.7901 364.836 91.1136 364.685 90.8842C364.534 90.6547 363.644 89.7099 362.707 88.7846C360.434 86.5388 358.805 85.3586 356.525 84.3038C354.127 83.1949 351.886 82.4525 350.533 82.3191C350.085 82.2749 349.571 82.1775 349.391 82.1028C348.896 81.8972 343.319 81.9328 342.854 82.1444ZM301.926 142C302.316 142.188 302.501 142.379 302.732 142.832L303.032 143.421L302.768 144.179C302.344 145.393 301.999 145.992 301.57 146.255C300.46 146.937 298.934 146.063 298.933 144.745C298.933 144.195 299.544 142.846 300.016 142.352C300.643 141.697 301.115 141.61 301.926 142ZM308.682 144.868C309.94 145.509 310.119 146.407 309.325 148.087C308.576 149.672 307.327 149.978 306.345 148.818C305.779 148.15 305.746 147.802 306.149 146.775C306.683 145.416 306.732 145.345 307.365 144.983C308.058 144.588 308.122 144.583 308.682 144.868Z" fill="#2C2C2E"/>
<path d="M301.926 142C302.316 142.188 302.501 142.379 302.732 142.832L303.032 143.421L302.768 144.179C302.344 145.393 301.999 145.992 301.57 146.255C300.46 146.937 298.934 146.063 298.933 144.745C298.933 144.195 299.544 142.846 300.016 142.352C300.643 141.697 301.115 141.61 301.926 142Z" fill="#EEEEEE"/>
<path d="M308.682 144.868C309.94 145.509 310.119 146.407 309.325 148.087C308.576 149.672 307.327 149.978 306.345 148.818C305.779 148.15 305.746 147.802 306.149 146.775C306.683 145.416 306.732 145.345 307.365 144.983C308.058 144.588 308.122 144.583 308.682 144.868Z" fill="#EEEEEE"/>
<path fill-rule="evenodd" clip-rule="evenodd" d="M261.396 0.770317C261.238 0.797274 260.719 0.874229 260.244 0.941392C258.376 1.20544 255.947 1.98203 254.119 2.90008C253.718 3.10146 252.378 3.87574 251.143 4.62065C249.907 5.36544 248.415 6.21599 247.826 6.51056C245.075 7.88805 241.742 9.03582 238.759 9.63327C236.101 10.1655 235.176 10.2653 232.9 10.2653C229.549 10.2653 224.654 10.7272 221.708 11.3216C216.564 12.3596 211.819 14.1821 207.164 16.9074C204.246 18.6166 202.764 19.689 199.589 22.3908C197.796 23.9167 197.588 24.1278 195.529 26.509C192.688 29.7927 191.015 32.2355 188.979 36.0709C186.283 41.1476 184.722 46.1501 183.913 52.306C183.686 54.033 183.633 54.9459 183.63 57.2022C183.627 58.7276 183.576 60.494 183.515 61.1276C183.455 61.7612 183.357 63.1869 183.298 64.2957C183.189 66.3341 183.152 66.6841 182.64 70.5167C182.171 74.0256 181.246 78.4638 180.182 82.3131C178.357 88.9144 175.372 96.0374 171.825 102.255C171.175 103.396 170.578 104.531 170.499 104.778C170.269 105.5 170.425 106.284 171.131 107.961C172.274 110.675 172.965 112.914 173.673 116.195C174.388 119.511 174.441 120.178 174.535 127.082C174.637 134.561 174.786 136.474 175.52 139.685C176.231 142.792 176.68 143.671 177.556 143.671C178.096 143.671 178.62 144.861 179.372 144.232C180.644 143.168 181.226 143.323 182.598 142.927C183.367 142.706 183.795 142.929 185.42 142.927C187.094 142.926 187.544 141.46 188.3 141.698C189.574 142.098 190.774 141.909 192.447 143.101C196.95 146.312 201.866 149.088 206.175 150.852C208.842 151.944 213.031 153.219 216.268 153.926C220.041 154.749 222.389 155.472 226.086 156.949C231.492 159.108 236.227 161.95 240.89 165.832C244.524 168.858 248.046 172.674 250.662 176.417C253.224 180.082 255.096 183.517 256.647 187.396C259.351 194.161 260.375 200.145 260.59 207.479C260.68 210.517 260.302 211.108 260.302 211.108C260.302 211.108 260.59 211.165 264.016 210.94C267.054 209.979 270.621 207.737 272.918 205.347C276.566 201.548 278.671 196.883 279.157 191.517C279.249 190.492 279.312 183.117 279.361 167.403L279.431 144.765L279.687 143.477C280.344 140.18 280.967 138.3 282.353 135.434C283.945 132.141 285.574 129.829 287.995 127.424C289.799 125.632 291.164 124.511 293.169 123.175C295.614 121.546 295.651 121.016 293.447 119.095C290.491 116.518 288.03 113.596 285.743 109.945C283.723 106.72 282.595 104.283 281.339 100.429C280.589 98.1287 280.211 96.56 279.743 93.8172L279.434 92.0022L279.363 73.7424C279.309 59.9431 279.256 55.2294 279.146 54.4458C278.923 52.8661 279.045 48.0769 279.357 46.1512C279.679 44.1611 280.193 42.1376 280.892 40.1095C281.595 38.0709 282.009 37.123 283.486 34.1698C285.242 30.658 285.799 28.955 286.277 25.6449C286.578 23.556 286.57 22.603 286.232 20.288C285.778 17.1712 285.233 15.4062 283.939 12.8574C282.202 9.43431 280.069 6.95652 276.903 4.68056C275.601 3.74453 272.572 2.22522 270.943 1.69126C268.597 0.922157 267.763 0.800153 264.564 0.75868C262.98 0.738058 261.554 0.743359 261.396 0.770317ZM225.624 47.9365C225.79 47.9996 226.196 48.3035 226.525 48.6118C227.27 49.3102 227.43 49.3932 228.445 49.6066C229.74 49.8792 230.171 50.1938 230.318 50.9752C230.476 51.8187 229.681 52.8074 228.539 53.1868C226.315 53.9254 223.493 51.9755 223.495 49.7009C223.495 48.3648 224.52 47.5163 225.624 47.9365ZM234.761 52.3624C234.932 52.452 235.253 52.7145 235.475 52.946C236.049 53.5449 236.441 53.7554 237.519 54.0436C238.29 54.2501 238.533 54.3716 238.815 54.6926C239.501 55.4741 239.195 56.5143 238.074 57.2071C237.548 57.5325 237.434 57.5563 236.406 57.5557C235.42 57.5553 235.237 57.5207 234.688 57.2319C232.581 56.1243 231.737 53.5332 233.127 52.4399C233.49 52.1544 234.291 52.1163 234.761 52.3624ZM81.9666 132.804C78.4696 133.233 77.212 133.456 74.9205 134.054C68.7538 135.662 63.6559 138.227 58.4075 142.361C57.1755 143.332 53.1875 147.325 52.1524 148.625C47.019 155.07 44.0252 161.991 42.858 170.11C42.516 172.489 42.5102 172.609 42.5102 177.253C42.5103 182.397 42.5617 183.01 43.1978 185.453C43.6807 187.308 44.3485 188.928 45.3054 190.566C46.5248 192.653 47.3038 193.654 49.0678 195.397C50.8787 197.187 52.2676 198.222 54.1472 199.182C55.6594 199.954 58.5572 200.947 60.0699 201.21C61.2722 201.42 66.7661 201.46 67.9516 201.268C69.2071 201.064 71.9965 200.132 73.4965 199.416C75.8338 198.299 77.3193 197.233 79.3302 195.231C81.3145 193.254 82.1249 192.126 83.4691 189.464C84.4499 187.522 84.9301 186.219 85.3397 184.388L85.6475 183.013L85.6812 158.84C85.7055 141.421 85.6793 134.535 85.5873 134.194C85.4264 133.596 86.6478 132.967 86.0571 132.804C85.6264 132.684 82.7267 132.71 81.9666 132.804ZM370.57 181.253C369.966 181.413 369.406 182.002 369.243 182.648C369.154 183.005 369.111 184.878 369.111 188.507C369.11 194.153 369.048 195.051 368.532 196.895C368.237 197.95 367.457 199.625 366.836 200.538C365.815 202.041 363.532 203.854 361.645 204.662C359.809 205.448 359.843 205.443 354.596 205.531L349.815 205.61L348.259 206.023C344.457 207.033 341.4 208.743 338.667 211.392C337.062 212.949 336.203 214.139 335.08 216.364C334.067 218.369 333.822 219.016 333.33 220.972C333.058 222.054 333.02 222.464 332.969 224.834C332.879 228.975 333.258 230.841 334.848 234.108C335.785 236.034 336.75 237.439 338.122 238.874C341.633 242.549 345.536 244.49 350.767 245.162C352.447 245.378 353.214 245.395 361.22 245.393C366.266 245.392 370.186 245.344 370.644 245.278C371.075 245.215 372.142 245.113 373.015 245.051C378.67 244.647 384.976 242.086 389.675 238.286C391.238 237.022 394.47 233.718 395.455 232.378C398.853 227.751 400.757 223.107 401.547 217.516C401.84 215.447 401.897 211.548 401.663 209.673C401.129 205.399 400.177 202.13 398.495 198.796C396.856 195.546 394.791 192.722 392.302 190.327C389.562 187.69 387.62 186.244 384.889 184.811C380.128 182.312 373.134 180.574 370.57 181.253Z" fill="#005AFF"/>
<path d="M293.447 119.095C295.651 121.016 295.614 121.546 293.169 123.175L295.785 121.537C295.094 120.731 295.179 120.588 293.447 119.095Z" fill="#005AFF"/>
<path fill-rule="evenodd" clip-rule="evenodd" d="M124.592 77.8842C117.653 78.8648 111.146 81.3117 105.499 85.064C101.412 87.7794 96.6979 92.2962 94.0442 96.0392C92.682 97.9608 91.0313 100.639 90.1572 102.346C88.0304 106.5 86.3003 112.134 85.743 116.723C85.6802 117.239 85.5752 118.005 85.5094 118.425C85.4319 118.92 85.3677 130.027 85.3264 150.113L85.2627 181.039L84.9784 182.638C84.5121 185.261 83.4391 187.836 81.515 190.949C80.2027 193.073 77.4233 195.724 74.8278 197.326C72.6776 198.654 68.9173 200.081 66.8263 200.362C65.4631 200.546 59.6157 200.421 58.6348 200.187C57.3129 199.872 54.4559 198.845 53.3273 198.278C52.7305 197.978 51.8549 197.472 51.3817 197.152C50.2857 196.413 49.9315 196.285 49.486 196.47C48.9359 196.697 46.0994 199.96 44.0252 202.751C40.6838 207.247 38.8802 210.166 36.4717 214.979C34.1083 219.701 32.6751 223.385 31.1381 228.688C29.8736 233.051 28.8254 238.448 28.4707 242.42C28.1138 246.418 28.0974 248.146 28.1572 275.458C28.1572 275.458 27.929 301.509 28.4701 304.484C29.0113 307.46 30.0037 309.889 31.8039 312.643C33.6386 315.45 35.5247 317.244 38.7949 319.292C40.1718 320.154 43.4053 321.465 44.9951 321.805C46.0231 322.026 46.5256 322.051 49.778 322.049C51.7768 322.047 53.6234 321.995 53.8816 321.933C54.1398 321.871 54.6911 321.764 55.1065 321.695C57.0256 321.378 60.9645 319.507 63.0714 317.91C66.5828 315.25 69.92 312.224 71.2532 307.994C72.2243 304.912 73.6554 305.482 73.6724 285.126C73.6909 263.035 74.3633 247.55 74.5365 245.957C74.7866 243.655 73.9306 240.154 74.5365 238.065C75.0005 236.466 75.1105 233.33 75.9426 231.681C77.5488 228.498 79.7762 225.141 81.5116 223.287C81.936 222.833 82.5316 222.166 82.8352 221.804C83.4304 221.095 85.9946 218.759 87.3297 217.71C90.5519 215.178 93.7158 213.341 97.6576 211.713C99.6107 210.906 99.8065 210.843 101.966 210.329C103.017 210.079 104.67 209.684 105.638 209.452L107.399 209.031L112.504 209.03C118.16 209.029 117.785 208.993 121.775 209.919C124.868 210.636 128.147 211.838 130.424 213.088C131.577 213.721 134.06 215.227 134.744 215.709C137.119 217.382 141.209 221.251 142.758 223.29C144.999 226.239 147.431 230.577 148.415 233.383C148.917 234.816 149.317 235.437 149.737 235.437C150.087 235.437 150.412 235.214 150.56 234.872C150.66 234.64 150.716 230.248 150.77 218.243C150.824 206.273 150.882 201.711 150.987 201.108C151.065 200.656 151.236 199.6 151.368 198.761C151.499 197.921 151.678 196.918 151.766 196.531C151.854 196.143 152.089 195.113 152.288 194.242C152.787 192.051 153.8 188.819 154.713 186.505C155.527 184.439 157.349 180.705 158.431 178.885C159.511 177.067 162.134 173.935 160.593 173.033C159.418 172.345 162.777 172.771 162.149 171.708C161.649 170.862 163.44 169.73 163.186 168.828C162.888 167.775 162.648 165.89 162.898 164.681C163.261 162.923 160.621 162.745 161.918 161.34C163.256 159.891 165.774 158.868 167.794 158.402C168.459 158.249 168.187 158.019 168.888 158.172C169.179 158.235 169.694 158.338 171.307 158.402C172.921 158.466 175.019 155.983 175.632 156.041C177.495 156.214 178.489 156.249 178.787 156.041C179.158 155.781 182.037 154.715 181.445 153.621C180.68 152.205 180.701 150.77 180.524 149.416C180.314 147.822 178.194 146.242 178.787 144.808C179.008 144.273 178.226 143.479 178.226 143.264C178.226 143.048 178.043 142.376 177.82 141.769C177.596 141.162 177.337 140.348 177.243 139.961C177.15 139.574 176.915 138.65 176.721 137.907C176.527 137.165 176.288 135.977 176.19 135.267C176.092 134.557 175.948 133.527 175.87 132.978C175.783 132.371 175.69 129.337 175.632 125.232C175.528 117.935 175.492 117.327 175.02 114.831C173.852 108.654 171.514 102.818 168.243 97.9126C166.09 94.6854 164.521 92.8269 161.374 89.7764C158.406 86.8996 154.77 84.3457 150.822 82.3648C146.182 80.036 141.998 78.7388 136.363 77.8817C134.78 77.6409 126.3 77.6428 124.592 77.8842ZM149.028 112.32C150.176 112.749 150.876 113.529 150.912 114.418C150.938 115.074 150.687 115.562 150.209 115.789C149.79 115.988 149.675 115.987 147.982 115.774C147.315 115.69 147.303 115.697 146.359 116.811C145.918 117.331 145.304 117.482 144.618 117.239C143.687 116.91 143.371 115.878 143.83 114.66C144.247 113.551 145.163 112.694 146.403 112.251C147.059 112.017 148.306 112.049 149.028 112.32ZM139.652 115.734C140.156 115.874 140.951 116.538 141.206 117.031C141.614 117.82 141.254 118.876 140.463 119.211C140.09 119.369 139.902 119.375 139.194 119.258C138.137 119.083 137.859 119.182 137.091 120.006C136.403 120.744 135.876 120.913 135.112 120.643C134.436 120.404 134.156 119.964 134.162 119.149C134.174 117.686 135.313 116.134 136.68 115.718C137.126 115.582 139.144 115.593 139.652 115.734Z" fill="#FFD400"/>
<path d="M149.028 112.32C150.176 112.749 150.876 113.529 150.912 114.418C150.938 115.074 150.687 115.562 150.209 115.789C149.79 115.988 149.675 115.987 147.982 115.774C147.315 115.69 147.303 115.697 146.359 116.811C145.918 117.331 145.304 117.482 144.618 117.239C143.687 116.91 143.371 115.878 143.83 114.66C144.247 113.551 145.163 112.694 146.403 112.251C147.059 112.017 148.306 112.049 149.028 112.32Z" fill="black"/>
<path d="M139.652 115.734C140.156 115.874 140.951 116.538 141.206 117.031C141.614 117.82 141.254 118.876 140.463 119.211C140.09 119.369 139.902 119.375 139.194 119.258C138.137 119.083 137.859 119.182 137.091 120.006C136.403 120.744 135.876 120.913 135.112 120.643C134.436 120.404 134.156 119.964 134.162 119.149C134.174 117.686 135.313 116.134 136.68 115.718C137.126 115.582 139.144 115.593 139.652 115.734Z" fill="black"/>
<path fill-rule="evenodd" clip-rule="evenodd" d="M182.392 139.318C181.423 139.43 180.952 139.577 179.89 140.099C177.415 141.316 175.829 143.123 174.958 145.719C174.302 147.673 174.264 149.938 174.975 151.916C175.177 152.477 175.488 153.185 175.666 153.488C176.432 154.793 176.562 155.113 176.427 155.362C176.251 155.689 175.63 155.781 174.744 155.612C174.339 155.535 172.604 155.437 170.89 155.394C169.175 155.351 167.692 155.265 167.595 155.203C167.498 155.141 166.095 155.047 164.478 154.995C162.86 154.942 161.325 154.892 161.066 154.884C159.535 154.834 156.982 155.383 155.655 156.047C154.117 156.818 152.077 158.709 151.102 160.268C150.445 161.32 149.891 162.828 149.586 164.4C149.313 165.807 149.305 166.379 149.54 167.959C149.752 169.382 149.836 169.677 150.388 170.919C151.353 173.094 152.957 174.895 155.001 176.1C155.598 176.452 156.188 176.832 156.312 176.944C156.7 177.296 156.583 177.728 155.704 179.183C152.697 184.161 150.262 190.447 149.074 196.298C147.997 201.601 148.031 200.755 147.953 224.238L147.884 244.844L147.563 246.124C147.025 248.269 146.896 248.638 146.22 249.966C145.281 251.813 144.211 253.269 142.661 254.81C140.794 256.665 138.852 254.875 136.113 255.922C134.378 256.585 133.345 258.423 129.259 258.687C126.415 258.87 124.983 260.542 122.418 261.858C120.605 262.788 119.601 263.538 118.106 265.08C115.811 267.446 114.72 269.434 113.82 272.889C113.372 274.609 113.362 274.69 113.361 276.723C113.359 279.018 113.539 280.216 114.195 282.271C114.577 283.467 115.596 285.551 116.303 286.579C117.184 287.859 118.392 289.213 119.249 289.878C121.256 291.437 122.856 292.332 124.898 293.04C127.395 293.906 125.465 293.835 148.713 293.912C171.469 293.987 169.879 293.94 172.528 294.609C175.064 295.25 177.886 296.763 180.05 298.642C180.819 299.309 182.199 300.934 183.024 302.144C183.659 303.076 184.949 305.654 185.283 306.661C185.793 308.196 185.902 308.828 186.141 311.648C186.23 312.689 186.063 314.263 185.646 316.31C185.194 318.534 184.048 320.947 182.401 323.144C181.409 324.466 180.664 325.248 179.525 326.162C177.502 327.785 176.399 328.434 174.218 329.285C172.954 329.779 173.348 328.21 171.539 328.558C170.363 328.784 168.782 329.285 157.023 329.285C146.967 329.286 144.985 330.497 144.384 330.631C143.982 330.721 143.264 330.853 142.788 330.924C140.809 331.22 136.984 332.747 135.167 333.965C133.378 335.166 130.802 337.547 129.694 339.024C128.853 340.146 127.874 341.753 127.313 342.934C126.465 344.72 125.479 347.973 125.475 348.997C125.474 349.275 125.397 349.816 125.303 350.2C125.07 351.157 125.072 353.845 125.308 355.133C125.945 358.606 126.504 360.367 127.707 362.686C130.308 367.696 134.827 371.467 140.42 373.294L141.891 373.775L165.008 373.746L188.125 373.716L187.125 373.203C184.491 371.849 182.845 370.529 181.38 368.594C179.843 366.564 178.422 363.117 178.42 361.413C178.419 361.112 178.342 360.536 178.248 360.132C178.121 359.591 178.107 359.274 178.192 358.931C178.256 358.675 178.358 357.994 178.418 357.418C178.577 355.915 179.398 353.577 180.331 351.973C181.781 349.477 184.179 347.234 186.769 345.951C188.254 345.215 189.693 344.765 191.302 344.533C191.755 344.468 195.831 344.38 200.361 344.337L208.596 344.259L210.067 343.761C211.791 343.176 212.687 342.713 214.097 341.677C215.22 340.853 215.913 340.041 217.623 337.549C219.054 335.464 221.306 332.497 222.071 331.69C222.435 331.306 223.028 330.625 223.388 330.177C224.158 329.218 228.193 325.27 229.515 324.181C230.02 323.765 230.709 323.198 231.044 322.92C232.993 321.312 236.887 318.591 239.275 317.171C240.659 316.348 246.046 313.626 247.008 313.264C247.364 313.13 248.185 312.803 248.832 312.537C251.347 311.504 255.736 310.141 258.539 309.523C259.798 309.245 260.372 308.956 260.542 308.513C260.732 308.018 260.636 272.383 260.442 271.503C260.357 271.119 260.178 270.307 260.043 269.699C259.574 267.585 258.389 265.507 256.605 263.671C255.141 262.164 254.237 261.488 252.597 260.673C250.683 259.723 249.074 259.339 247.007 259.338C246.134 259.338 245.234 259.281 245.007 259.212C244.781 259.143 244.094 259.044 243.479 258.991C240.938 258.774 238.126 257.926 235.403 256.555C233.446 255.57 232.358 254.864 230.504 253.376C229.469 252.545 229.137 252.211 227.661 250.515C226.755 249.474 225.541 247.583 224.655 245.833C223.452 243.457 222.307 239.855 222.298 238.42C222.296 238.047 222.217 237.428 222.123 237.044C222.029 236.66 221.953 235.874 221.953 235.298C221.953 234.721 222.029 233.935 222.123 233.551C222.217 233.167 222.296 232.638 222.298 232.377C222.302 231.907 222.617 230.257 222.962 228.895C223.321 227.482 224.255 225.263 225.107 223.804C227.34 219.978 229.571 217.6 233.126 215.254C235.223 213.871 238.354 212.528 240.655 212.025C243.778 211.344 243.886 211.337 252.27 211.265L260.82 211.108C260.82 211.108 260.786 210.732 260.82 207.076C260.869 201.801 259.814 196.052 258.241 191.064C256.709 186.205 255.201 182.849 252.77 178.882C250.083 174.5 247.265 170.988 243.578 167.426C241.383 165.306 239.772 163.965 237.501 162.366C234.381 160.17 232.479 159.031 229.537 157.595C225.268 155.512 221.273 154.087 217.126 153.167C211.124 151.836 208.246 150.961 204.17 149.229C200.548 147.689 195.211 144.706 192.125 142.498C189.787 140.825 188.701 140.17 187.609 139.776C186.174 139.258 184.323 139.095 182.392 139.318ZM181.046 193.139C181.733 193.423 182.5 194.594 182.697 195.661C182.882 196.66 181.733 197.776 180.714 197.586C179.441 197.35 178.338 194.821 179.077 193.833C179.407 193.392 180.037 192.98 180.381 192.98C180.536 192.98 180.835 193.052 181.046 193.139ZM174.267 196.235C174.732 196.516 175.31 197.491 175.494 198.306C175.669 199.076 175.512 199.661 175.002 200.145C174.684 200.446 174.553 200.489 173.948 200.489C173.349 200.489 173.212 200.445 172.907 200.156C172.405 199.68 171.831 198.552 171.76 197.902C171.608 196.508 173.088 195.524 174.267 196.235Z" fill="white"/>
<path d="M174.267 196.235C174.732 196.516 175.31 197.491 175.494 198.306C175.669 199.076 175.512 199.661 175.002 200.145C174.684 200.446 174.553 200.489 173.948 200.489C173.349 200.489 173.212 200.445 172.907 200.156C172.405 199.68 171.831 198.552 171.76 197.902C171.608 196.508 173.088 195.524 174.267 196.235Z" fill="black"/>
<path d="M181.046 193.139C181.733 193.423 182.5 194.594 182.697 195.661C182.882 196.66 181.733 197.776 180.714 197.586C179.441 197.35 178.338 194.821 179.077 193.833C179.407 193.392 180.037 192.98 180.381 192.98C180.536 192.98 180.835 193.052 181.046 193.139Z" fill="black"/>
<path fill-rule="evenodd" clip-rule="evenodd" d="M109.737 208.414C109.609 208.47 109.163 208.522 108.746 208.529C108.328 208.537 107.751 208.594 107.462 208.657C107.173 208.719 106.412 208.847 105.77 208.941C104.041 209.194 103.522 209.308 102.62 209.634C102.17 209.796 101.709 209.93 101.594 209.932C101.479 209.933 100.586 210.2 99.61 210.526C98.3416 210.949 97.0698 211.502 95.1516 212.467C93.6755 213.208 92.3103 213.933 92.1178 214.077C91.9252 214.222 91.5052 214.479 91.1843 214.648C90.3627 215.083 88.9923 216.086 87.0419 217.68C85.5229 218.922 82.195 222.356 81.0275 223.887C79.7048 225.622 78.5459 227.336 77.7859 228.681C76.8871 230.273 75.8189 232.432 75.4456 233.412C75.2621 233.894 74.9951 234.577 74.8523 234.93C74.7096 235.284 74.5088 235.862 74.4061 236.215C73.8368 238.175 73.7022 238.653 73.6 239.077C73.5382 239.334 73.4313 239.702 73.3627 239.895C73.294 240.087 73.2053 240.639 73.1655 241.121C73.1257 241.603 73.0286 242.112 72.9496 242.252C72.8707 242.393 72.8062 242.804 72.8062 243.165C72.8062 243.527 72.7406 243.938 72.6604 244.078C72.5453 244.279 72.5003 250.359 72.4471 272.892C72.3756 303.11 72.3969 301.919 71.8859 304.314C71.6186 305.568 70.8556 307.536 69.9915 309.202C68.5299 312.02 66.9866 313.984 64.7524 315.868C62.9106 317.421 60.4597 318.979 59.209 319.392C58.8798 319.5 58.4046 319.691 58.1529 319.815C57.9013 319.939 57.3803 320.125 56.9952 320.228C56.6102 320.33 56.0588 320.48 55.77 320.561C55.4812 320.642 54.9562 320.744 54.6032 320.789C54.2502 320.833 53.6467 320.934 53.262 321.013C52.434 321.182 47.9279 321.112 47.1936 320.919C46.705 320.79 45.8078 320.603 44.9182 320.444C44.6294 320.393 44.0518 320.206 43.6347 320.029C41.5892 319.162 41.2634 319.031 41.1682 319.031C41.0171 319.031 39.0281 317.866 38.1409 317.258C37.0525 316.512 35.1819 314.868 34.3542 313.93C32.0369 311.304 29.8609 307.171 29.2626 304.259C28.783 301.925 28.2702 301.766 28.2249 295.379C28.187 290.058 28.1096 289.1 28.1096 289.1C28.1096 289.1 28.1406 289.077 27.2568 289.465C26.6549 289.73 26.1202 289.946 26.0687 289.946C25.9059 289.946 22.0137 291.952 21.4439 292.329C21.1439 292.528 20.5895 292.865 20.212 293.077C19.8344 293.289 19.2659 293.669 18.9488 293.92C18.6316 294.172 18.1096 294.564 17.7887 294.792C17.4678 295.021 16.9309 295.403 16.5957 295.643C16.2603 295.882 15.6565 296.383 15.2538 296.755C12.1635 299.61 11.4496 300.302 11.1745 300.709C11.0024 300.963 10.5474 301.507 10.1636 301.918C9.77983 302.329 9.29605 302.917 9.08847 303.226C8.881 303.535 8.59407 303.919 8.45078 304.079C8.07703 304.499 6.72196 306.507 6.44098 307.058C6.30994 307.315 6.00982 307.812 5.774 308.162C5.23421 308.964 3.62487 312.252 3.13619 313.551C2.45848 315.353 1.9614 316.749 1.87061 317.106C1.82126 317.3 1.72009 317.573 1.64588 317.712C1.57167 317.85 1.50912 318.138 1.5069 318.351C1.50457 318.564 1.42767 318.87 1.33596 319.031C1.24424 319.191 1.16735 319.461 1.16501 319.63C1.1628 319.798 1.08217 320.125 0.9859 320.356C0.889634 320.586 0.810871 320.98 0.810871 321.231C0.810871 321.482 0.732108 321.911 0.635842 322.184C0.539576 322.457 0.460813 322.967 0.460813 323.316C0.460813 323.666 0.395236 324.066 0.315073 324.207C-0.107215 324.946 -0.104064 335.025 0.318806 336.004C0.396869 336.185 0.460813 336.665 0.460813 337.07C0.460813 337.475 0.539576 338.03 0.635842 338.303C0.732108 338.577 0.810637 338.964 0.810287 339.165C0.809937 339.366 0.88415 339.766 0.975048 340.056C1.1831 340.717 1.38322 341.496 1.4999 342.1C1.63783 342.813 2.65054 345.73 3.09734 346.701C3.31589 347.176 3.49465 347.638 3.49465 347.728C3.49465 348.015 5.51951 351.875 6.39804 353.263C7.79629 355.473 9.60469 357.946 10.774 359.246C12.5745 361.249 15.722 364.226 16.7385 364.889C16.9952 365.056 17.3103 365.286 17.4386 365.399C17.8328 365.747 20.6547 367.632 21.581 368.166C23.7516 369.419 27.3112 371.065 28.9906 371.594C29.6323 371.795 30.3412 372.028 30.5658 372.111C31.619 372.498 31.8253 372.56 32.3161 372.635C32.6049 372.68 32.9559 372.779 33.0961 372.855C33.2363 372.932 33.5145 372.995 33.7145 372.995C33.9144 372.995 34.246 373.087 34.4515 373.199C34.8054 373.393 37.6721 373.405 89.4923 373.426C127.437 373.441 144.071 373.411 143.868 373.326C143.708 373.259 143.404 373.131 143.193 373.041C142.982 372.951 142.732 372.878 142.638 372.878C142.543 372.878 141.688 372.489 140.74 372.013C139.225 371.254 138.287 370.689 137.054 369.794C136.456 369.361 133.12 366.056 132.946 365.725C132.854 365.549 132.609 365.213 132.401 364.978C131.122 363.529 129.455 359.806 128.693 356.7C128.292 355.064 128.001 351.186 128.223 350.437C128.293 350.205 128.401 349.574 128.465 349.036C128.661 347.389 128.873 346.476 129.453 344.779C130.122 342.824 130.768 341.504 131.804 339.972C132.878 338.386 132.991 338.251 134.767 336.412C136.565 334.549 136.596 334.525 139.015 332.989C141.108 331.66 144.618 330.341 146.61 330.135C147.059 330.089 147.575 329.989 147.755 329.914C148 329.812 151.29 329.777 160.671 329.777C169.802 329.777 173.348 329.74 173.586 329.644C173.767 329.571 174.125 329.469 174.381 329.418C174.995 329.295 175.813 329.086 176.248 328.939C176.441 328.875 176.76 328.781 176.958 328.732C178.025 328.466 181.208 326.636 181.849 325.921C181.978 325.778 182.345 325.492 182.666 325.286C182.987 325.079 183.486 324.609 183.775 324.241C184.064 323.872 184.46 323.377 184.656 323.14C185.243 322.43 185.844 321.538 186.177 320.879C186.35 320.537 186.623 320.084 186.783 319.874C187.149 319.394 187.8 317.606 188.219 315.935C188.711 313.969 188.711 309.505 188.219 307.525C187.737 305.587 186.861 303.324 186.382 302.78C186.29 302.676 186.046 302.272 185.839 301.884C185.24 300.762 182.977 298.14 182.316 297.803C182.124 297.704 181.744 297.421 181.473 297.172C181.201 296.924 180.933 296.721 180.876 296.721C180.819 296.721 180.569 296.558 180.319 296.359C179.333 295.571 176.075 294.233 174.404 293.929C174.031 293.861 173.664 293.765 173.587 293.716C173.511 293.666 164.023 293.593 152.503 293.554C132.218 293.485 130.336 293.45 129.516 293.124C129.355 293.06 128.909 292.919 128.524 292.81C127.551 292.534 125.186 291.35 124.206 290.648C123.757 290.327 123.127 289.884 122.806 289.664C122.17 289.23 120.832 287.91 120.367 287.259C119.216 285.649 118.776 284.929 118.189 283.697C117.821 282.926 117.429 282.006 117.318 281.653C117.206 281.299 117.043 280.838 116.956 280.627C116.868 280.416 116.797 279.989 116.797 279.678C116.797 279.367 116.718 278.889 116.622 278.616C116.378 277.924 116.378 274.254 116.622 273.827C116.714 273.666 116.79 273.326 116.793 273.071C116.795 272.817 116.872 272.396 116.964 272.137C117.056 271.878 117.298 271.14 117.503 270.498C118.273 268.078 119.618 265.996 121.728 263.957C123.35 262.389 124.124 261.815 125.833 260.911C126.982 260.304 129.312 259.46 129.84 259.46C129.987 259.46 130.295 259.381 130.525 259.284C130.83 259.157 131.389 259.109 132.567 259.109C133.746 259.109 134.305 259.061 134.609 258.934C134.87 258.825 135.402 258.759 136.014 258.759C136.556 258.759 137.113 258.696 137.254 258.619C137.394 258.543 137.745 258.444 138.034 258.399C139.351 258.197 141.924 256.991 143.926 255.639C144.732 255.095 146.668 253.135 147.248 252.276C147.465 251.955 147.781 251.53 147.951 251.332C148.739 250.415 150.402 246.409 150.402 245.429C150.402 245.26 150.481 244.898 150.578 244.625C150.784 244.04 150.809 242.561 150.62 242.092C150.547 241.912 150.421 241.08 150.339 240.245C150.257 239.41 150.102 238.411 149.996 238.026C149.889 237.64 149.731 237.036 149.644 236.683C149.557 236.329 149.375 235.646 149.24 235.164C149.105 234.682 148.952 234.13 148.898 233.938C148.845 233.745 148.711 233.377 148.6 233.12C148.489 232.863 148.268 232.259 148.109 231.777C147.605 230.255 146.158 227.482 144.78 225.401C143.44 223.376 143.248 223.115 142.132 221.818C141.787 221.417 141.378 220.924 141.223 220.722C140.609 219.92 137.886 217.384 136.021 215.876C135.405 215.379 133.368 214.013 132.55 213.549C132.132 213.313 131.345 212.85 130.799 212.52C130.254 212.189 129.624 211.861 129.399 211.79C129.174 211.719 128.571 211.472 128.057 211.243C126.791 210.676 123.977 209.697 123.331 209.597C123.042 209.552 122.727 209.468 122.631 209.408C122.536 209.349 122.221 209.265 121.932 209.22C121.091 209.091 119.936 208.881 119.311 208.743C118.994 208.673 118.206 208.563 117.561 208.499C116.03 208.347 110.039 208.282 109.737 208.414ZM116.455 232.949C116.916 233.185 117.191 233.615 117.456 234.518C117.513 234.709 117.698 234.943 117.869 235.039C118.153 235.199 118.233 235.192 118.803 234.955C119.146 234.813 119.562 234.697 119.728 234.697C120.217 234.697 120.795 235.173 121.167 235.883L121.511 236.54L121.292 237.028C121.064 237.533 120.315 238.127 119.448 238.49C118.877 238.729 117.28 238.727 116.706 238.487C115.224 237.868 114.143 236.456 114.025 234.987C113.957 234.137 114.113 233.767 114.806 233.14C115.361 232.639 115.757 232.592 116.455 232.949ZM125.662 237.457C126.032 237.769 126.504 238.588 126.64 239.157C126.745 239.591 127.053 239.65 127.756 239.373C128.087 239.242 128.572 239.135 128.835 239.135C129.244 239.135 129.387 239.209 129.823 239.646C130.261 240.085 130.332 240.224 130.332 240.642C130.332 241.381 130.078 241.848 129.416 242.324C128.783 242.779 127.68 243.224 127.182 243.224C127.017 243.224 126.572 243.115 126.194 242.982C124.45 242.368 123.8 241.714 123.202 239.974C122.916 239.142 122.923 238.615 123.227 238.123C123.815 237.17 124.951 236.859 125.662 237.457Z" fill="#FF5A00"/>
<path d="M116.455 232.949C116.916 233.185 117.191 233.615 117.456 234.518C117.513 234.709 117.698 234.943 117.869 235.039C118.153 235.199 118.233 235.192 118.803 234.955C119.146 234.813 119.562 234.697 119.728 234.697C120.217 234.697 120.795 235.173 121.167 235.883L121.511 236.54L121.292 237.028C121.064 237.533 120.315 238.127 119.448 238.49C118.877 238.729 117.28 238.727 116.706 238.487C115.224 237.868 114.143 236.456 114.025 234.987C113.957 234.137 114.113 233.767 114.806 233.14C115.361 232.639 115.757 232.592 116.455 232.949Z" fill="white"/>
<path d="M125.662 237.457C126.032 237.769 126.504 238.588 126.64 239.157C126.745 239.591 127.053 239.65 127.756 239.373C128.087 239.242 128.572 239.135 128.835 239.135C129.244 239.135 129.387 239.209 129.823 239.646C130.261 240.085 130.332 240.224 130.332 240.642C130.332 241.381 130.078 241.848 129.416 242.324C128.783 242.779 127.68 243.224 127.182 243.224C127.017 243.224 126.572 243.115 126.194 242.982C124.45 242.368 123.8 241.714 123.202 239.974C122.916 239.142 122.923 238.615 123.227 238.123C123.815 237.17 124.951 236.859 125.662 237.457Z" fill="white"/>
<path fill-rule="evenodd" clip-rule="evenodd" d="M337.178 239.761C336.339 240.543 334.95 242.289 333.673 244.168C331.441 247.451 329.653 251.824 328.797 256.091C328.308 258.531 328.288 259.321 328.214 279.478C328.164 293.01 328.104 298.988 328.015 299.35C327.945 299.635 327.825 300.257 327.749 300.733C327.416 302.81 326.656 305.246 325.629 307.527C324.742 309.498 323.183 312.038 321.786 313.792C320.876 314.933 314.816 320.941 313.901 321.609C312.848 322.378 310.272 325.099 309.416 326.347C308.109 328.251 307.133 331.338 307.133 333.566C307.133 334.696 307.531 336.763 307.999 338.059C308.683 339.952 309.408 341.051 311.181 342.882C312.043 343.774 312.606 344.252 313.08 344.496C313.451 344.687 313.988 345.002 314.273 345.196C314.818 345.568 316.386 346.119 317.557 346.35C317.937 346.425 318.569 346.56 318.963 346.65C319.875 346.859 320.73 346.856 321.531 346.641C321.88 346.548 322.356 346.47 322.591 346.47C323.168 346.468 324.675 345.981 326.139 345.323C326.805 345.024 327.598 344.687 327.903 344.575C328.208 344.462 328.676 344.203 328.943 344C330.55 342.774 331.104 342.563 331.552 343.01C331.823 343.281 332.883 345.361 333.168 346.18C333.279 346.497 333.732 347.612 334.175 348.657C335.161 350.981 337.031 356.631 337.302 358.104C337.366 358.452 337.519 359.204 337.643 359.774C338.194 362.313 338.58 364.928 338.585 366.158C338.588 366.702 338.664 367.458 338.756 367.839C338.869 368.307 338.924 369.19 338.925 370.576L338.927 372.621L370.176 372.592L401.425 372.562L403.441 371.884C405.487 371.197 407.569 370.386 408.51 369.911C408.795 369.767 409.676 369.249 410.468 368.758C414.622 366.188 416.561 364.461 419.433 360.774C421.891 357.618 423.504 354.443 424.709 350.385C425.56 347.523 425.904 345.241 425.988 341.918C426.091 337.852 425.535 334.535 424.038 330.286C422.698 326.483 420.818 323.305 417.973 320.037C416.474 318.314 413.978 315.682 413.148 314.949C412.743 314.591 412.15 313.981 411.83 313.593C411.51 313.204 409.997 311.585 408.468 309.994C404.413 305.776 403.128 304.279 401.591 301.988C400.584 300.486 399.036 297.482 398.509 296.007C398.317 295.47 398.022 294.667 397.853 294.224C397.487 293.265 396.646 289.657 396.64 289.024C396.638 288.779 396.562 288.242 396.471 287.83C396.334 287.208 396.305 284.986 396.298 274.697C396.291 264.407 396.262 262.186 396.125 261.563C396.035 261.152 395.959 260.589 395.957 260.314C395.95 259.474 395.272 256.4 394.606 254.19C394.009 252.207 392.458 248.777 391.248 246.76C390.243 245.085 387.798 241.85 387.082 241.248C386.869 241.069 386.578 240.942 386.38 240.942C386.194 240.942 385.414 241.257 384.646 241.641C380.781 243.579 378.05 244.404 373.43 245.031C372.214 245.196 370.729 245.214 361.103 245.178C361.103 245.178 350.241 245.156 348.662 244.773C347.082 244.389 346.472 244.194 344.975 243.59C342.915 242.759 341.75 242.003 339.169 239.819C338.237 239.03 337.971 239.022 337.178 239.761ZM344.195 251.537C345.213 251.999 345.414 252.98 344.755 254.28C344.291 255.194 343.989 255.539 343.455 255.762C342.639 256.103 341.633 255.54 341.346 254.58C341.228 254.189 341.235 254.004 341.386 253.487C341.662 252.54 342.185 251.798 342.759 251.537C343.37 251.26 343.585 251.26 344.195 251.537ZM350.992 254.647C351.951 255.082 352.204 256.104 351.649 257.301C351.27 258.117 350.633 258.771 350.065 258.924C349.682 259.027 349.545 259.006 349.083 258.777C348.466 258.47 348.028 257.887 348.028 257.37C348.028 256.993 348.551 255.787 348.968 255.201C349.207 254.865 349.98 254.426 350.332 254.426C350.427 254.426 350.724 254.525 350.992 254.647Z" fill="#FFD400"/>
<path d="M344.195 251.537C345.213 251.999 345.414 252.98 344.755 254.28C344.291 255.194 343.989 255.539 343.455 255.762C342.639 256.103 341.633 255.54 341.346 254.58C341.228 254.189 341.235 254.004 341.386 253.487C341.662 252.54 342.185 251.798 342.759 251.537C343.37 251.26 343.585 251.26 344.195 251.537Z" fill="black"/>
<path d="M350.992 254.647C351.951 255.082 352.204 256.104 351.649 257.301C351.27 258.117 350.633 258.771 350.065 258.924C349.682 259.027 349.545 259.006 349.083 258.777C348.466 258.47 348.028 257.887 348.028 257.37C348.028 256.993 348.551 255.787 348.968 255.201C349.207 254.865 349.98 254.426 350.332 254.426C350.427 254.426 350.724 254.525 350.992 254.647Z" fill="black"/>
</svg>
